<svg width="1200" height="1000" xmlns="http://www.w3.org/2000/svg">
  <!-- 배경 -->
  <rect width="1200" height="1000" fill="#f8f9fa"/>

  <!-- 왼쪽 사이드바 -->
  <rect width="200" height="1000" fill="#2d3748"/>
  <text x="20" y="35" font-family="Arial" font-size="16" fill="white" font-weight="bold">✨ 마녀봇 관리</text>
  <line x1="20" y1="50" x2="180" y2="50" stroke="#4a5568" stroke-width="1"/>

  <rect x="10" y="70" width="180" height="40" rx="6" fill="transparent"/>
  <text x="30" y="95" font-family="Arial" font-size="13" fill="#a0aec0">📊 대시보드</text>

  <rect x="10" y="120" width="180" height="40" rx="6" fill="transparent"/>
  <text x="30" y="145" font-family="Arial" font-size="13" fill="#a0aec0">👥 사용자</text>

  <rect x="10" y="170" width="180" height="40" rx="6" fill="transparent"/>
  <text x="30" y="195" font-family="Arial" font-size="13" fill="#a0aec0">⚠️ 활동량</text>

  <!-- 콘텐츠 그룹 (활성) -->
  <rect x="10" y="220" width="180" height="40" rx="6" fill="#4299e1"/>
  <text x="30" y="245" font-family="Arial" font-size="13" fill="white" font-weight="600">📅 콘텐츠 ▼</text>

  <!-- 콘텐츠 서브메뉴 -->
  <rect x="20" y="265" width="170" height="30" rx="4" fill="transparent"/>
  <text x="40" y="285" font-family="Arial" font-size="12" fill="#cbd5e0">• 일정 관리</text>

  <rect x="20" y="295" width="170" height="30" rx="4" fill="transparent"/>
  <text x="40" y="315" font-family="Arial" font-size="12" fill="#cbd5e0">• 스토리 이벤트</text>

  <rect x="20" y="325" width="170" height="30" rx="4" fill="#3182ce"/>
  <text x="40" y="345" font-family="Arial" font-size="12" fill="white" font-weight="600">• 공지 예약</text>

  <rect x="10" y="370" width="180" height="40" rx="6" fill="transparent"/>
  <text x="30" y="395" font-family="Arial" font-size="13" fill="#a0aec0">🛒 상점</text>

  <rect x="10" y="420" width="180" height="40" rx="6" fill="transparent"/>
  <text x="30" y="445" font-family="Arial" font-size="13" fill="#a0aec0">📋 로그</text>

  <rect x="10" y="470" width="180" height="40" rx="6" fill="transparent"/>
  <text x="30" y="495" font-family="Arial" font-size="13" fill="#a0aec0">⚙️ 설정</text>

  <!-- 메인 콘텐츠 영역 -->
  <text x="240" y="50" font-family="Arial" font-size="24" fill="#333" font-weight="bold">📢 공지 예약 관리</text>
  <text x="240" y="75" font-family="Arial" font-size="13" fill="#6c757d">공지를 예약하고 관리합니다</text>

  <!-- 통계 카드들 -->
  <rect x="240" y="100" width="430" height="100" rx="8" fill="white" filter="drop-shadow(0px 2px 4px rgba(0,0,0,0.1))"/>
  <text x="260" y="130" font-family="Arial" font-size="13" fill="#6c757d">대기 중</text>
  <text x="260" y="165" font-family="Arial" font-size="32" fill="#333" font-weight="bold">8</text>
  <text x="600" y="175" font-family="Arial" font-size="36" fill="#ffc107">⏳</text>

  <rect x="710" y="100" width="430" height="100" rx="8" fill="white" filter="drop-shadow(0px 2px 4px rgba(0,0,0,0.1))"/>
  <text x="730" y="130" font-family="Arial" font-size="13" fill="#6c757d">발행됨</text>
  <text x="730" y="165" font-family="Arial" font-size="32" fill="#333" font-weight="bold">24</text>
  <text x="1070" y="175" font-family="Arial" font-size="36" fill="#198754">✅</text>

  <!-- 공지 목록 카드 -->
  <rect x="240" y="230" width="900" height="440" rx="8" fill="white" filter="drop-shadow(0px 2px 4px rgba(0,0,0,0.1))"/>

  <!-- 카드 헤더 -->
  <text x="270" y="265" font-family="Arial" font-size="16" fill="#333" font-weight="bold">공지 예약 목록</text>
  <rect x="900" y="245" width="100" height="32" rx="6" fill="#198754"/>
  <text x="910" y="267" font-family="Arial" font-size="13" fill="white" font-weight="600">+ 공지 생성</text>

  <rect x="1020" y="245" width="100" height="32" rx="6" fill="#0dcaf0"/>
  <text x="1027" y="267" font-family="Arial" font-size="12" fill="white" font-weight="600">📝 API 문서</text>

  <!-- 안내 메시지 -->
  <rect x="270" y="285" width="850" height="65" rx="6" fill="#cfe2ff"/>
  <text x="290" y="310" font-family="Arial" font-size="13" fill="#052c65" font-weight="bold">ℹ️ API를 통해 관리:</text>
  <text x="310" y="330" font-family="Arial" font-size="12" fill="#052c65">현재 UI는 간략하게 구현되어 있습니다. 자세한 기능은 /api/v1/announcements API를 사용하세요.</text>

  <!-- 테이블 헤더 -->
  <rect x="270" y="365" width="850" height="40" rx="0" fill="#f8f9fa"/>
  <text x="285" y="390" font-family="Arial" font-size="12" fill="#495057" font-weight="bold">ID</text>
  <text x="345" y="390" font-family="Arial" font-size="12" fill="#495057" font-weight="bold">유형</text>
  <text x="475" y="390" font-family="Arial" font-size="12" fill="#495057" font-weight="bold">내용</text>
  <text x="815" y="390" font-family="Arial" font-size="12" fill="#495057" font-weight="bold">예약 시간</text>
  <text x="965" y="390" font-family="Arial" font-size="12" fill="#495057" font-weight="bold">상태</text>
  <text x="1050" y="390" font-family="Arial" font-size="12" fill="#495057" font-weight="bold">생성일</text>

  <!-- 테이블 행 1 -->
  <line x1="270" y1="405" x2="1120" y2="405" stroke="#dee2e6" stroke-width="1"/>
  <text x="285" y="430" font-family="Arial" font-size="12" fill="#333">1</text>
  <text x="345" y="430" font-family="Arial" font-size="12" fill="#333">공지</text>
  <text x="475" y="430" font-family="Arial" font-size="12" fill="#333">내일 오전 10시부터 서버 점검이 있습니다.</text>
  <text x="815" y="430" font-family="Arial" font-size="12" fill="#333">2025-01-21 09:00</text>
  <rect x="960" y="415" width="65" height="22" rx="11" fill="#ffc107"/>
  <text x="968" y="430" font-family="Arial" font-size="11" fill="#000">대기 중</text>
  <text x="1050" y="430" font-family="Arial" font-size="12" fill="#6c757d">2025-01-20</text>

  <!-- 테이블 행 2 -->
  <line x1="270" y1="445" x2="1120" y2="445" stroke="#dee2e6" stroke-width="1"/>
  <text x="285" y="470" font-family="Arial" font-size="12" fill="#333">2</text>
  <text x="345" y="470" font-family="Arial" font-size="12" fill="#333">안내</text>
  <text x="475" y="470" font-family="Arial" font-size="12" fill="#333">새해 이벤트가 시작됩니다! 많은 참여 부탁드립니다.</text>
  <text x="815" y="470" font-family="Arial" font-size="12" fill="#333">2025-01-01 00:00</text>
  <rect x="960" y="455" width="65" height="22" rx="11" fill="#198754"/>
  <text x="973" y="470" font-family="Arial" font-size="11" fill="white">발행됨</text>
  <text x="1050" y="470" font-family="Arial" font-size="12" fill="#6c757d">2024-12-25</text>

  <!-- 테이블 행 3 -->
  <line x1="270" y1="485" x2="1120" y2="485" stroke="#dee2e6" stroke-width="1"/>
  <text x="285" y="510" font-family="Arial" font-size="12" fill="#333">3</text>
  <text x="345" y="510" font-family="Arial" font-size="12" fill="#333">공지</text>
  <text x="475" y="510" font-family="Arial" font-size="12" fill="#333">2월 커뮤니티 미팅 일정을 공지합니다.</text>
  <text x="815" y="510" font-family="Arial" font-size="12" fill="#333">2025-01-25 10:00</text>
  <rect x="960" y="495" width="65" height="22" rx="11" fill="#ffc107"/>
  <text x="968" y="510" font-family="Arial" font-size="11" fill="#000">대기 중</text>
  <text x="1050" y="510" font-family="Arial" font-size="12" fill="#6c757d">2025-01-20</text>

  <!-- 테이블 행 4 -->
  <line x1="270" y1="525" x2="1120" y2="525" stroke="#dee2e6" stroke-width="1"/>
  <text x="285" y="550" font-family="Arial" font-size="12" fill="#333">4</text>
  <text x="345" y="550" font-family="Arial" font-size="12" fill="#333">안내</text>
  <text x="475" y="550" font-family="Arial" font-size="12" fill="#333">휴식기간 시스템 업데이트 안내</text>
  <text x="815" y="550" font-family="Arial" font-size="12" fill="#333">2025-01-15 14:00</text>
  <rect x="960" y="535" width="65" height="22" rx="11" fill="#198754"/>
  <text x="973" y="550" font-family="Arial" font-size="11" fill="white">발행됨</text>
  <text x="1050" y="550" font-family="Arial" font-size="12" fill="#6c757d">2025-01-14</text>

  <!-- 테이블 행 5 -->
  <line x1="270" y1="565" x2="1120" y2="565" stroke="#dee2e6" stroke-width="1"/>
  <text x="285" y="590" font-family="Arial" font-size="12" fill="#333">5</text>
  <text x="345" y="590" font-family="Arial" font-size="12" fill="#333">공지</text>
  <text x="475" y="590" font-family="Arial" font-size="12" fill="#333">상점에 새로운 아이템이 추가되었습니다!</text>
  <text x="815" y="590" font-family="Arial" font-size="12" fill="#333">2025-01-12 16:00</text>
  <rect x="960" y="575" width="65" height="22" rx="11" fill="#198754"/>
  <text x="973" y="590" font-family="Arial" font-size="11" fill="white">발행됨</text>
  <text x="1050" y="590" font-family="Arial" font-size="12" fill="#6c757d">2025-01-11</text>

  <!-- 테이블 하단 경계 -->
  <line x1="270" y1="605" x2="1120" y2="605" stroke="#dee2e6" stroke-width="1"/>

  <!-- Empty state message (만약 공지가 없을 때) -->
  <!-- <text x="655" y="500" font-family="Arial" font-size="14" fill="#6c757d" text-anchor="middle">공지가 없습니다</text> -->
</svg>
