<svg width="1200" height="900" xmlns="http://www.w3.org/2000/svg">
  <!-- 배경 -->
  <rect width="1200" height="900" fill="#f8f9fa"/>

  <!-- 왼쪽 사이드바 -->
  <rect width="200" height="900" fill="#2d3748"/>
  <text x="20" y="35" font-family="Arial" font-size="16" fill="white" font-weight="bold">✨ 마녀봇 관리</text>
  <line x1="20" y1="50" x2="180" y2="50" stroke="#4a5568" stroke-width="1"/>

  <rect x="10" y="70" width="180" height="40" rx="6" fill="transparent"/>
  <text x="30" y="95" font-family="Arial" font-size="13" fill="#a0aec0">📊 대시보드</text>

  <rect x="10" y="120" width="180" height="40" rx="6" fill="transparent"/>
  <text x="30" y="145" font-family="Arial" font-size="13" fill="#a0aec0">👥 유저 관리</text>

  <!-- 콘텐츠 (활성) -->
  <rect x="10" y="170" width="180" height="40" rx="6" fill="#4299e1"/>
  <text x="30" y="195" font-family="Arial" font-size="13" fill="white" font-weight="600">📅 콘텐츠</text>

  <rect x="10" y="220" width="180" height="40" rx="6" fill="transparent"/>
  <text x="30" y="245" font-family="Arial" font-size="13" fill="#a0aec0">🛒 상점</text>

  <rect x="10" y="270" width="180" height="40" rx="6" fill="transparent"/>
  <text x="30" y="295" font-family="Arial" font-size="13" fill="#a0aec0">📋 로그</text>

  <rect x="10" y="320" width="180" height="40" rx="6" fill="transparent"/>
  <text x="30" y="345" font-family="Arial" font-size="13" fill="#a0aec0">⚙️ 설정</text>

  <!-- 메인 콘텐츠 영역 -->
  <text x="240" y="50" font-family="Arial" font-size="24" fill="#333" font-weight="bold">📢 공지 예약 관리</text>
  <text x="240" y="75" font-family="Arial" font-size="13" fill="#6c757d">공지를 예약하고 관리합니다</text>

  <!-- 버튼 -->
  <rect x="1050" y="35" width="130" height="40" rx="4" fill="#198754"/>
  <text x="1115" y="60" font-family="Arial" font-size="14" fill="white" text-anchor="middle" font-weight="600">+ 공지 생성</text>

  <!-- 통계 카드들 -->
  <rect x="240" y="100" width="220" height="100" rx="8" fill="white" filter="drop-shadow(0px 2px 4px rgba(0,0,0,0.1))"/>
  <text x="260" y="130" font-family="Arial" font-size="13" fill="#6c757d">전체 공지</text>
  <text x="260" y="165" font-family="Arial" font-size="32" fill="#333" font-weight="bold">32</text>
  <text x="390" y="175" font-family="Arial" font-size="36" fill="#0d6efd">📢</text>

  <rect x="480" y="100" width="220" height="100" rx="8" fill="white" filter="drop-shadow(0px 2px 4px rgba(0,0,0,0.1))"/>
  <text x="500" y="130" font-family="Arial" font-size="13" fill="#6c757d">대기 중</text>
  <text x="500" y="165" font-family="Arial" font-size="32" fill="#333" font-weight="bold">8</text>
  <text x="650" y="175" font-family="Arial" font-size="36" fill="#ffc107">⏳</text>

  <rect x="720" y="100" width="220" height="100" rx="8" fill="white" filter="drop-shadow(0px 2px 4px rgba(0,0,0,0.1))"/>
  <text x="740" y="130" font-family="Arial" font-size="13" fill="#6c757d">발송 완료</text>
  <text x="740" y="165" font-family="Arial" font-size="32" fill="#333" font-weight="bold">24</text>
  <text x="890" y="175" font-family="Arial" font-size="36" fill="#198754">✅</text>

  <rect x="960" y="100" width="220" height="100" rx="8" fill="white" filter="drop-shadow(0px 2px 4px rgba(0,0,0,0.1))"/>
  <text x="980" y="130" font-family="Arial" font-size="13" fill="#6c757d">이번 달</text>
  <text x="980" y="165" font-family="Arial" font-size="32" fill="#333" font-weight="bold">12</text>
  <text x="1130" y="175" font-family="Arial" font-size="36" fill="#6c757d">📅</text>

  <!-- 필터 -->
  <rect x="240" y="220" width="200" height="35" rx="4" fill="white" stroke="#ced4da" stroke-width="1"/>
  <text x="255" y="243" font-family="Arial" font-size="13" fill="#495057">전체 상태</text>
  <text x="415" y="243" font-family="Arial" font-size="13" fill="#adb5bd">▼</text>

  <rect x="460" y="220" width="150" height="35" rx="4" fill="white" stroke="#ced4da" stroke-width="1"/>
  <text x="475" y="243" font-family="Arial" font-size="13" fill="#495057">전체 유형</text>
  <text x="590" y="243" font-family="Arial" font-size="13" fill="#adb5bd">▼</text>

  <rect x="630" y="220" width="250" height="35" rx="4" fill="white" stroke="#ced4da" stroke-width="1"/>
  <text x="645" y="243" font-family="Arial" font-size="13" fill="#adb5bd">🔍 공지 검색...</text>

  <!-- 공지 목록 테이블 -->
  <rect x="240" y="275" width="940" height="595" rx="8" fill="white" filter="drop-shadow(0px 2px 4px rgba(0,0,0,0.1))"/>

  <!-- 테이블 헤더 -->
  <rect x="240" y="275" width="940" height="40" rx="8" fill="#f8f9fa"/>
  <text x="270" y="300" font-family="Arial" font-size="12" fill="#495057" font-weight="bold">ID</text>
  <text x="330" y="300" font-family="Arial" font-size="12" fill="#495057" font-weight="bold">유형</text>
  <text x="430" y="300" font-family="Arial" font-size="12" fill="#495057" font-weight="bold">내용</text>
  <text x="850" y="300" font-family="Arial" font-size="12" fill="#495057" font-weight="bold">예약 시간</text>
  <text x="1000" y="300" font-family="Arial" font-size="12" fill="#495057" font-weight="bold">상태</text>
  <text x="1110" y="300" font-family="Arial" font-size="12" fill="#495057" font-weight="bold">작업</text>

  <!-- 테이블 행 1 (대기 중) -->
  <line x1="250" y1="315" x2="1170" y2="315" stroke="#dee2e6" stroke-width="1"/>
  <text x="270" y="340" font-family="Arial" font-size="12" fill="#333">#12</text>

  <rect x="320" y="325" width="50" height="22" rx="4" fill="#dc3545"/>
  <text x="345" y="340" font-family="Arial" font-size="10" fill="white" text-anchor="middle">공지</text>

  <text x="430" y="340" font-family="Arial" font-size="12" fill="#333">내일 오전 10시부터 서버 점검이 있습니다</text>
  <text x="850" y="340" font-family="Arial" font-size="12" fill="#333">2025-11-21 09:00</text>

  <rect x="995" y="325" width="70" height="22" rx="11" fill="#ffc107"/>
  <text x="1030" y="340" font-family="Arial" font-size="11" fill="#212529" text-anchor="middle">대기 중</text>

  <rect x="1100" y="327" width="60" height="20" rx="4" fill="white" stroke="#0d6efd" stroke-width="1"/>
  <text x="1130" y="341" font-family="Arial" font-size="10" fill="#0d6efd" text-anchor="middle">편집</text>

  <!-- 테이블 행 2 (발송 완료) -->
  <line x1="250" y1="355" x2="1170" y2="355" stroke="#dee2e6" stroke-width="1"/>
  <text x="270" y="380" font-family="Arial" font-size="12" fill="#333">#11</text>

  <rect x="320" y="365" width="50" height="22" rx="4" fill="#0dcaf0"/>
  <text x="345" y="380" font-family="Arial" font-size="10" fill="white" text-anchor="middle">안내</text>

  <text x="430" y="380" font-family="Arial" font-size="12" fill="#333">새해 이벤트가 시작됩니다! 많은 참여 부탁드립니다</text>
  <text x="850" y="380" font-family="Arial" font-size="12" fill="#333">2025-01-01 00:00</text>

  <rect x="995" y="365" width="70" height="22" rx="11" fill="#198754"/>
  <text x="1030" y="380" font-family="Arial" font-size="11" fill="white" text-anchor="middle">발송됨</text>

  <rect x="1100" y="367" width="60" height="20" rx="4" fill="white" stroke="#6c757d" stroke-width="1"/>
  <text x="1130" y="381" font-family="Arial" font-size="10" fill="#6c757d" text-anchor="middle">상세</text>

  <!-- 테이블 행 3 (대기 중) -->
  <line x1="250" y1="395" x2="1170" y2="395" stroke="#dee2e6" stroke-width="1"/>
  <text x="270" y="420" font-family="Arial" font-size="12" fill="#333">#10</text>

  <rect x="320" y="405" width="50" height="22" rx="4" fill="#dc3545"/>
  <text x="345" y="420" font-family="Arial" font-size="10" fill="white" text-anchor="middle">공지</text>

  <text x="430" y="420" font-family="Arial" font-size="12" fill="#333">2월 커뮤니티 미팅 일정을 공지합니다</text>
  <text x="850" y="420" font-family="Arial" font-size="12" fill="#333">2025-01-25 10:00</text>

  <rect x="995" y="405" width="70" height="22" rx="11" fill="#ffc107"/>
  <text x="1030" y="420" font-family="Arial" font-size="11" fill="#212529" text-anchor="middle">대기 중</text>

  <rect x="1100" y="407" width="60" height="20" rx="4" fill="white" stroke="#0d6efd" stroke-width="1"/>
  <text x="1130" y="421" font-family="Arial" font-size="10" fill="#0d6efd" text-anchor="middle">편집</text>

  <!-- 테이블 행 4 (발송 완료) -->
  <line x1="250" y1="435" x2="1170" y2="435" stroke="#dee2e6" stroke-width="1"/>
  <text x="270" y="460" font-family="Arial" font-size="12" fill="#333">#9</text>

  <rect x="320" y="445" width="50" height="22" rx="4" fill="#0dcaf0"/>
  <text x="345" y="460" font-family="Arial" font-size="10" fill="white" text-anchor="middle">안내</text>

  <text x="430" y="460" font-family="Arial" font-size="12" fill="#333">리뉴얼 기간 시스템 업데이트 안내</text>
  <text x="850" y="460" font-family="Arial" font-size="12" fill="#333">2025-01-15 14:00</text>

  <rect x="995" y="445" width="70" height="22" rx="11" fill="#198754"/>
  <text x="1030" y="460" font-family="Arial" font-size="11" fill="white" text-anchor="middle">발송됨</text>

  <rect x="1100" y="447" width="60" height="20" rx="4" fill="white" stroke="#6c757d" stroke-width="1"/>
  <text x="1130" y="461" font-family="Arial" font-size="10" fill="#6c757d" text-anchor="middle">상세</text>

  <!-- 테이블 행 5 (발송 완료) -->
  <line x1="250" y1="475" x2="1170" y2="475" stroke="#dee2e6" stroke-width="1"/>
  <text x="270" y="500" font-family="Arial" font-size="12" fill="#333">#8</text>

  <rect x="320" y="485" width="50" height="22" rx="4" fill="#dc3545"/>
  <text x="345" y="500" font-family="Arial" font-size="10" fill="white" text-anchor="middle">공지</text>

  <text x="430" y="500" font-family="Arial" font-size="12" fill="#333">상점에 새로운 아이템이 추가되었습니다!</text>
  <text x="850" y="500" font-family="Arial" font-size="12" fill="#333">2025-01-12 16:00</text>

  <rect x="995" y="485" width="70" height="22" rx="11" fill="#198754"/>
  <text x="1030" y="500" font-family="Arial" font-size="11" fill="white" text-anchor="middle">발송됨</text>

  <rect x="1100" y="487" width="60" height="20" rx="4" fill="white" stroke="#6c757d" stroke-width="1"/>
  <text x="1130" y="501" font-family="Arial" font-size="10" fill="#6c757d" text-anchor="middle">상세</text>

  <!-- 테이블 행 6 (발송 완료) -->
  <line x1="250" y1="515" x2="1170" y2="515" stroke="#dee2e6" stroke-width="1"/>
  <text x="270" y="540" font-family="Arial" font-size="12" fill="#333">#7</text>

  <rect x="320" y="525" width="50" height="22" rx="4" fill="#6f42c1"/>
  <text x="345" y="540" font-family="Arial" font-size="10" fill="white" text-anchor="middle">경고</text>

  <text x="430" y="540" font-family="Arial" font-size="12" fill="#333">커뮤니티 규칙 위반에 대한 경고입니다</text>
  <text x="850" y="540" font-family="Arial" font-size="12" fill="#333">2025-01-10 11:00</text>

  <rect x="995" y="525" width="70" height="22" rx="11" fill="#198754"/>
  <text x="1030" y="540" font-family="Arial" font-size="11" fill="white" text-anchor="middle">발송됨</text>

  <rect x="1100" y="527" width="60" height="20" rx="4" fill="white" stroke="#6c757d" stroke-width="1"/>
  <text x="1130" y="541" font-family="Arial" font-size="10" fill="#6c757d" text-anchor="middle">상세</text>

  <!-- 테이블 행 7 (취소됨) -->
  <line x1="250" y1="555" x2="1170" y2="555" stroke="#dee2e6" stroke-width="1"/>
  <text x="270" y="580" font-family="Arial" font-size="12" fill="#6c757d">#6</text>

  <rect x="320" y="565" width="50" height="22" rx="4" fill="#6c757d"/>
  <text x="345" y="580" font-family="Arial" font-size="10" fill="white" text-anchor="middle">안내</text>

  <text x="430" y="580" font-family="Arial" font-size="12" fill="#6c757d">이벤트 연기 안내 (취소됨)</text>
  <text x="850" y="580" font-family="Arial" font-size="12" fill="#6c757d">2025-01-08 15:00</text>

  <rect x="995" y="565" width="70" height="22" rx="11" fill="#6c757d"/>
  <text x="1030" y="580" font-family="Arial" font-size="11" fill="white" text-anchor="middle">취소됨</text>

  <rect x="1100" y="567" width="60" height="20" rx="4" fill="white" stroke="#6c757d" stroke-width="1"/>
  <text x="1130" y="581" font-family="Arial" font-size="10" fill="#6c757d" text-anchor="middle">상세</text>

  <!-- 테이블 행 8-12 (더 많은 발송 완료 항목들) -->
  <line x1="250" y1="595" x2="1170" y2="595" stroke="#dee2e6" stroke-width="1"/>
  <text x="270" y="620" font-family="Arial" font-size="12" fill="#333">#5</text>
  <rect x="320" y="605" width="50" height="22" rx="4" fill="#0dcaf0"/>
  <text x="345" y="620" font-family="Arial" font-size="10" fill="white" text-anchor="middle">안내</text>
  <text x="430" y="620" font-family="Arial" font-size="12" fill="#333">호그스미드 방문 일정 안내</text>
  <text x="850" y="620" font-family="Arial" font-size="12" fill="#333">2025-01-05 10:00</text>
  <rect x="995" y="605" width="70" height="22" rx="11" fill="#198754"/>
  <text x="1030" y="620" font-family="Arial" font-size="11" fill="white" text-anchor="middle">발송됨</text>
  <rect x="1100" y="607" width="60" height="20" rx="4" fill="white" stroke="#6c757d" stroke-width="1"/>
  <text x="1130" y="621" font-family="Arial" font-size="10" fill="#6c757d" text-anchor="middle">상세</text>

  <line x1="250" y1="635" x2="1170" y2="635" stroke="#dee2e6" stroke-width="1"/>
  <text x="270" y="660" font-family="Arial" font-size="12" fill="#333">#4</text>
  <rect x="320" y="645" width="50" height="22" rx="4" fill="#dc3545"/>
  <text x="345" y="660" font-family="Arial" font-size="10" fill="white" text-anchor="middle">공지</text>
  <text x="430" y="660" font-family="Arial" font-size="12" fill="#333">크리스마스 대연회 참가 신청 안내</text>
  <text x="850" y="660" font-family="Arial" font-size="12" fill="#333">2024-12-20 18:00</text>
  <rect x="995" y="645" width="70" height="22" rx="11" fill="#198754"/>
  <text x="1030" y="660" font-family="Arial" font-size="11" fill="white" text-anchor="middle">발송됨</text>
  <rect x="1100" y="647" width="60" height="20" rx="4" fill="white" stroke="#6c757d" stroke-width="1"/>
  <text x="1130" y="661" font-family="Arial" font-size="10" fill="#6c757d" text-anchor="middle">상세</text>

  <line x1="250" y1="675" x2="1170" y2="675" stroke="#dee2e6" stroke-width="1"/>
  <text x="270" y="700" font-family="Arial" font-size="12" fill="#333">#3</text>
  <rect x="320" y="685" width="50" height="22" rx="4" fill="#0dcaf0"/>
  <text x="345" y="700" font-family="Arial" font-size="10" fill="white" text-anchor="middle">안내</text>
  <text x="430" y="700" font-family="Arial" font-size="12" fill="#333">겨울방학 리뉴얼 기간 시작 안내</text>
  <text x="850" y="700" font-family="Arial" font-size="12" fill="#333">2024-12-15 00:00</text>
  <rect x="995" y="685" width="70" height="22" rx="11" fill="#198754"/>
  <text x="1030" y="700" font-family="Arial" font-size="11" fill="white" text-anchor="middle">발송됨</text>
  <rect x="1100" y="687" width="60" height="20" rx="4" fill="white" stroke="#6c757d" stroke-width="1"/>
  <text x="1130" y="701" font-family="Arial" font-size="10" fill="#6c757d" text-anchor="middle">상세</text>

  <line x1="250" y1="715" x2="1170" y2="715" stroke="#dee2e6" stroke-width="1"/>
  <text x="270" y="740" font-family="Arial" font-size="12" fill="#333">#2</text>
  <rect x="320" y="725" width="50" height="22" rx="4" fill="#dc3545"/>
  <text x="345" y="740" font-family="Arial" font-size="10" fill="white" text-anchor="middle">공지</text>
  <text x="430" y="740" font-family="Arial" font-size="12" fill="#333">새로운 커뮤니티 규칙 안내</text>
  <text x="850" y="740" font-family="Arial" font-size="12" fill="#333">2024-12-01 12:00</text>
  <rect x="995" y="725" width="70" height="22" rx="11" fill="#198754"/>
  <text x="1030" y="740" font-family="Arial" font-size="11" fill="white" text-anchor="middle">발송됨</text>
  <rect x="1100" y="727" width="60" height="20" rx="4" fill="white" stroke="#6c757d" stroke-width="1"/>
  <text x="1130" y="741" font-family="Arial" font-size="10" fill="#6c757d" text-anchor="middle">상세</text>

  <line x1="250" y1="755" x2="1170" y2="755" stroke="#dee2e6" stroke-width="1"/>
  <text x="270" y="780" font-family="Arial" font-size="12" fill="#333">#1</text>
  <rect x="320" y="765" width="50" height="22" rx="4" fill="#0dcaf0"/>
  <text x="345" y="780" font-family="Arial" font-size="10" fill="white" text-anchor="middle">안내</text>
  <text x="430" y="780" font-family="Arial" font-size="12" fill="#333">호그와트 신입생 환영 메시지</text>
  <text x="850" y="780" font-family="Arial" font-size="12" fill="#333">2024-11-01 09:00</text>
  <rect x="995" y="765" width="70" height="22" rx="11" fill="#198754"/>
  <text x="1030" y="780" font-family="Arial" font-size="11" fill="white" text-anchor="middle">발송됨</text>
  <rect x="1100" y="767" width="60" height="20" rx="4" fill="white" stroke="#6c757d" stroke-width="1"/>
  <text x="1130" y="781" font-family="Arial" font-size="10" fill="#6c757d" text-anchor="middle">상세</text>

  <!-- 테이블 하단 -->
  <line x1="240" y1="795" x2="1180" y2="795" stroke="#dee2e6" stroke-width="2"/>

  <!-- 페이지네이션 -->
  <text x="260" y="835" font-family="Arial" font-size="12" fill="#6c757d">총 32건 | 1-12 표시</text>

  <rect x="1050" y="815" width="30" height="30" rx="4" fill="#0d6efd"/>
  <text x="1065" y="837" font-family="Arial" font-size="12" fill="white" text-anchor="middle" font-weight="600">1</text>

  <rect x="1085" y="815" width="30" height="30" rx="4" fill="white" stroke="#ced4da" stroke-width="1"/>
  <text x="1100" y="837" font-family="Arial" font-size="12" fill="#495057" text-anchor="middle">2</text>

  <rect x="1120" y="815" width="30" height="30" rx="4" fill="white" stroke="#ced4da" stroke-width="1"/>
  <text x="1135" y="837" font-family="Arial" font-size="12" fill="#495057" text-anchor="middle">3</text>

  <rect x="1155" y="815" width="25" height="30" rx="4" fill="white" stroke="#ced4da" stroke-width="1"/>
  <text x="1167" y="837" font-family="Arial" font-size="12" fill="#495057" text-anchor="middle">→</text>
</svg>
