<svg width="1200" height="850" xmlns="http://www.w3.org/2000/svg">
  <!-- 배경 -->
  <rect width="1200" height="850" fill="#f8f9fa"/>

  <!-- 왼쪽 사이드바 -->
  <rect width="200" height="850" fill="#2d3748"/>
  <text x="20" y="35" font-family="Arial" font-size="16" fill="white" font-weight="bold">✨ 마녀봇 관리</text>
  <line x1="20" y1="50" x2="180" y2="50" stroke="#4a5568" stroke-width="1"/>

  <rect x="10" y="70" width="180" height="40" rx="6" fill="transparent"/>
  <text x="30" y="95" font-family="Arial" font-size="13" fill="#a0aec0">📊 대시보드</text>

  <!-- 유저 관리 (활성) -->
  <rect x="10" y="120" width="180" height="40" rx="6" fill="#4299e1"/>
  <text x="30" y="145" font-family="Arial" font-size="13" fill="white" font-weight="600">👥 유저 관리</text>

  <rect x="10" y="170" width="180" height="40" rx="6" fill="transparent"/>
  <text x="30" y="195" font-family="Arial" font-size="13" fill="#a0aec0">📅 콘텐츠</text>

  <rect x="10" y="220" width="180" height="40" rx="6" fill="transparent"/>
  <text x="30" y="245" font-family="Arial" font-size="13" fill="#a0aec0">🛒 상점</text>

  <rect x="10" y="270" width="180" height="40" rx="6" fill="transparent"/>
  <text x="30" y="295" font-family="Arial" font-size="13" fill="#a0aec0">📋 로그</text>

  <rect x="10" y="320" width="180" height="40" rx="6" fill="transparent"/>
  <text x="30" y="345" font-family="Arial" font-size="13" fill="#a0aec0">⚙️ 설정</text>

  <!-- 메인 콘텐츠 영역 -->
  <text x="240" y="50" font-family="Arial" font-size="24" fill="#333" font-weight="bold">유저 관리</text>
  <text x="240" y="75" font-family="Arial" font-size="13" fill="#6c757d">활동량 모니터링, 휴식 현황, 재화 관리</text>

  <!-- 탭 메뉴 -->
  <rect x="240" y="95" width="940" height="50" rx="8" fill="white" filter="drop-shadow(0px 2px 4px rgba(0,0,0,0.1))"/>

  <!-- 탭 1: 활동량 모니터링 -->
  <rect x="250" y="105" width="150" height="35" rx="6" fill="transparent"/>
  <text x="325" y="128" font-family="Arial" font-size="13" fill="#6c757d" text-anchor="middle">⚠️ 활동량 모니터링</text>

  <!-- 탭 2: 휴식 현황 -->
  <rect x="410" y="105" width="120" height="35" rx="6" fill="transparent"/>
  <text x="470" y="128" font-family="Arial" font-size="13" fill="#6c757d" text-anchor="middle">🏖️ 휴식 현황</text>

  <!-- 탭 3: 재화 관리 (활성) -->
  <rect x="540" y="105" width="120" height="35" rx="6" fill="#0d6efd"/>
  <text x="600" y="128" font-family="Arial" font-size="13" fill="white" font-weight="600" text-anchor="middle">💰 재화 관리</text>

  <!-- 재화 관리 탭 내용 -->

  <!-- 통계 카드들 -->
  <rect x="240" y="165" width="300" height="100" rx="8" fill="white" filter="drop-shadow(0px 2px 4px rgba(0,0,0,0.1))"/>
  <text x="260" y="195" font-family="Arial" font-size="13" fill="#6c757d">총 유저 수</text>
  <text x="260" y="230" font-family="Arial" font-size="32" fill="#333" font-weight="bold">28</text>
  <text x="480" y="240" font-family="Arial" font-size="36" fill="#0d6efd">👥</text>

  <rect x="560" y="165" width="300" height="100" rx="8" fill="white" filter="drop-shadow(0px 2px 4px rgba(0,0,0,0.1))"/>
  <text x="580" y="195" font-family="Arial" font-size="13" fill="#6c757d">총 유통 재화</text>
  <text x="580" y="230" font-family="Arial" font-size="32" fill="#333" font-weight="bold">842,560</text>
  <text x="800" y="240" font-family="Arial" font-size="36" fill="#198754">💰</text>

  <rect x="880" y="165" width="300" height="100" rx="8" fill="white" filter="drop-shadow(0px 2px 4px rgba(0,0,0,0.1))"/>
  <text x="900" y="195" font-family="Arial" font-size="13" fill="#6c757d">평균 보유</text>
  <text x="900" y="230" font-family="Arial" font-size="32" fill="#333" font-weight="bold">30,091</text>
  <text x="1120" y="240" font-family="Arial" font-size="36" fill="#ffc107">📊</text>

  <!-- 필터 및 검색 -->
  <text x="240" y="310" font-family="Arial" font-size="14" fill="#495057" font-weight="600">필터 및 검색</text>

  <rect x="240" y="320" width="250" height="35" rx="4" fill="white" stroke="#ced4da" stroke-width="1"/>
  <text x="255" y="343" font-family="Arial" font-size="13" fill="#adb5bd">사용자명 검색...</text>

  <rect x="510" y="320" width="120" height="35" rx="4" fill="white" stroke="#ced4da" stroke-width="1"/>
  <text x="525" y="343" font-family="Arial" font-size="13" fill="#495057">정렬 기준</text>
  <text x="600" y="343" font-family="Arial" font-size="13" fill="#adb5bd">▼</text>

  <!-- 유저 목록 테이블 -->
  <rect x="240" y="375" width="940" height="450" rx="8" fill="white" filter="drop-shadow(0px 2px 4px rgba(0,0,0,0.1))"/>

  <!-- 테이블 헤더 -->
  <rect x="240" y="375" width="940" height="40" rx="8" fill="#f8f9fa"/>
  <text x="270" y="400" font-family="Arial" font-size="12" fill="#495057" font-weight="600">사용자명</text>
  <text x="440" y="400" font-family="Arial" font-size="12" fill="#495057" font-weight="600">표시명</text>
  <text x="600" y="400" font-family="Arial" font-size="12" fill="#495057" font-weight="600">현재 잔액</text>
  <text x="760" y="400" font-family="Arial" font-size="12" fill="#495057" font-weight="600">누적 획득</text>
  <text x="920" y="400" font-family="Arial" font-size="12" fill="#495057" font-weight="600">누적 사용</text>
  <text x="1080" y="400" font-family="Arial" font-size="12" fill="#495057" font-weight="600">작업</text>

  <!-- 유저 1 -->
  <line x1="240" y1="415" x2="1180" y2="415" stroke="#dee2e6" stroke-width="1"/>
  <text x="270" y="445" font-family="Arial" font-size="13" fill="#0d6efd" text-decoration="underline" cursor="pointer">@user123</text>
  <text x="440" y="445" font-family="Arial" font-size="13" fill="#495057">김민준</text>
  <text x="600" y="445" font-family="Arial" font-size="14" fill="#198754" font-weight="600">15,420</text>
  <text x="760" y="445" font-family="Arial" font-size="13" fill="#6c757d">+42,800</text>
  <text x="920" y="445" font-family="Arial" font-size="13" fill="#6c757d">-27,380</text>
  <rect x="1070" y="430" width="90" height="24" rx="4" fill="#0d6efd"/>
  <text x="1115" y="447" font-family="Arial" font-size="11" fill="white" text-anchor="middle">상세/조정</text>

  <!-- 유저 2 -->
  <line x1="240" y1="465" x2="1180" y2="465" stroke="#dee2e6" stroke-width="1"/>
  <text x="270" y="495" font-family="Arial" font-size="13" fill="#0d6efd" text-decoration="underline" cursor="pointer">@user456</text>
  <text x="440" y="495" font-family="Arial" font-size="13" fill="#495057">이서연</text>
  <text x="600" y="495" font-family="Arial" font-size="14" fill="#198754" font-weight="600">8,750</text>
  <text x="760" y="495" font-family="Arial" font-size="13" fill="#6c757d">+35,200</text>
  <text x="920" y="495" font-family="Arial" font-size="13" fill="#6c757d">-26,450</text>
  <rect x="1070" y="480" width="90" height="24" rx="4" fill="#0d6efd"/>
  <text x="1115" y="497" font-family="Arial" font-size="11" fill="white" text-anchor="middle">상세/조정</text>

  <!-- 유저 3 -->
  <line x1="240" y1="515" x2="1180" y2="515" stroke="#dee2e6" stroke-width="1"/>
  <text x="270" y="545" font-family="Arial" font-size="13" fill="#0d6efd" text-decoration="underline" cursor="pointer">@user789</text>
  <text x="440" y="545" font-family="Arial" font-size="13" fill="#495057">박하준</text>
  <text x="600" y="545" font-family="Arial" font-size="14" fill="#198754" font-weight="600">22,100</text>
  <text x="760" y="545" font-family="Arial" font-size="13" fill="#6c757d">+48,600</text>
  <text x="920" y="545" font-family="Arial" font-size="13" fill="#6c757d">-26,500</text>
  <rect x="1070" y="530" width="90" height="24" rx="4" fill="#0d6efd"/>
  <text x="1115" y="547" font-family="Arial" font-size="11" fill="white" text-anchor="middle">상세/조정</text>

  <!-- 유저 4 -->
  <line x1="240" y1="565" x2="1180" y2="565" stroke="#dee2e6" stroke-width="1"/>
  <text x="270" y="595" font-family="Arial" font-size="13" fill="#0d6efd" text-decoration="underline" cursor="pointer">@user234</text>
  <text x="440" y="595" font-family="Arial" font-size="13" fill="#495057">최지우</text>
  <text x="600" y="595" font-family="Arial" font-size="14" fill="#198754" font-weight="600">31,850</text>
  <text x="760" y="595" font-family="Arial" font-size="13" fill="#6c757d">+52,100</text>
  <text x="920" y="595" font-family="Arial" font-size="13" fill="#6c757d">-20,250</text>
  <rect x="1070" y="580" width="90" height="24" rx="4" fill="#0d6efd"/>
  <text x="1115" y="597" font-family="Arial" font-size="11" fill="white" text-anchor="middle">상세/조정</text>

  <!-- 유저 5 -->
  <line x1="240" y1="615" x2="1180" y2="615" stroke="#dee2e6" stroke-width="1"/>
  <text x="270" y="645" font-family="Arial" font-size="13" fill="#0d6efd" text-decoration="underline" cursor="pointer">@user890</text>
  <text x="440" y="645" font-family="Arial" font-size="13" fill="#495057">정민서</text>
  <text x="600" y="645" font-family="Arial" font-size="14" fill="#198754" font-weight="600">19,420</text>
  <text x="760" y="645" font-family="Arial" font-size="13" fill="#6c757d">+38,900</text>
  <text x="920" y="645" font-family="Arial" font-size="13" fill="#6c757d">-19,480</text>
  <rect x="1070" y="630" width="90" height="24" rx="4" fill="#0d6efd"/>
  <text x="1115" y="647" font-family="Arial" font-size="11" fill="white" text-anchor="middle">상세/조정</text>

  <!-- 안내 메시지 -->
  <rect x="240" y="675" width="940" height="60" rx="4" fill="#e7f5ff"/>
  <text x="260" y="700" font-family="Arial" font-size="13" fill="#1971c2" font-weight="600">💡 재화 조정 방법</text>
  <text x="260" y="720" font-family="Arial" font-size="12" fill="#495057">사용자명을 클릭하거나 "상세/조정" 버튼을 누르면 해당 유저의 거래 내역을 확인하고 재화를 조정할 수 있습니다</text>

  <!-- 페이지네이션 -->
  <rect x="530" y="755" width="240" height="40" rx="6" fill="white" filter="drop-shadow(0px 1px 3px rgba(0,0,0,0.1))"/>
  <rect x="540" y="765" width="70" height="24" rx="4" fill="#6c757d"/>
  <text x="575" y="782" font-family="Arial" font-size="12" fill="white" text-anchor="middle">이전</text>

  <rect x="625" y="765" width="30" height="24" rx="4" fill="#0d6efd"/>
  <text x="640" y="782" font-family="Arial" font-size="12" fill="white" text-anchor="middle" font-weight="bold">1</text>

  <rect x="670" y="765" width="70" height="24" rx="4" fill="#e9ecef"/>
  <text x="705" y="782" font-family="Arial" font-size="12" fill="#6c757d" text-anchor="middle">다음</text>
</svg>
