<svg width="1000" height="700" xmlns="http://www.w3.org/2000/svg">
  <!-- 배경 -->
  <rect width="1000" height="700" fill="#f8f9fa"/>

  <!-- 네비게이션 바 -->
  <rect width="1000" height="60" fill="#212529"/>
  <text x="20" y="38" font-family="Arial" font-size="18" fill="white" font-weight="bold">✨ 마녀봇 관리</text>
  <text x="200" y="38" font-family="Arial" font-size="14" fill="#6c757d">대시보드</text>
  <text x="300" y="38" font-family="Arial" font-size="14" fill="#6c757d">사용자</text>
  <text x="400" y="38" font-family="Arial" font-size="14" fill="#adb5bd">이벤트</text>

  <!-- 제목 -->
  <text x="40" y="110" font-family="Arial" font-size="24" fill="#333" font-weight="bold">이벤트 관리</text>
  <text x="40" y="135" font-family="Arial" font-size="13" fill="#6c757d">커뮤니티 이벤트를 조회하고 관리합니다</text>

  <!-- 통계 카드들 -->
  <rect x="40" y="160" width="220" height="100" rx="8" fill="white" filter="drop-shadow(0px 2px 4px rgba(0,0,0,0.1))"/>
  <text x="60" y="190" font-family="Arial" font-size="13" fill="#6c757d">전체 이벤트</text>
  <text x="60" y="225" font-family="Arial" font-size="32" fill="#333" font-weight="bold">15</text>
  <text x="190" y="235" font-family="Arial" font-size="36" fill="#0d6efd">📅</text>

  <rect x="280" y="160" width="220" height="100" rx="8" fill="white" filter="drop-shadow(0px 2px 4px rgba(0,0,0,0.1))"/>
  <text x="300" y="190" font-family="Arial" font-size="13" fill="#6c757d">진행 중</text>
  <text x="300" y="225" font-family="Arial" font-size="32" fill="#333" font-weight="bold">3</text>
  <text x="450" y="235" font-family="Arial" font-size="36" fill="#198754">▶️</text>

  <rect x="520" y="160" width="220" height="100" rx="8" fill="white" filter="drop-shadow(0px 2px 4px rgba(0,0,0,0.1))"/>
  <text x="540" y="190" font-family="Arial" font-size="13" fill="#6c757d">예정</text>
  <text x="540" y="225" font-family="Arial" font-size="32" fill="#333" font-weight="bold">5</text>
  <text x="690" y="235" font-family="Arial" font-size="36" fill="#ffc107">⏳</text>

  <rect x="760" y="160" width="220" height="100" rx="8" fill="white" filter="drop-shadow(0px 2px 4px rgba(0,0,0,0.1))"/>
  <text x="780" y="190" font-family="Arial" font-size="13" fill="#6c757d">종료</text>
  <text x="780" y="225" font-family="Arial" font-size="32" fill="#333" font-weight="bold">7</text>
  <text x="930" y="235" font-family="Arial" font-size="36" fill="#6c757d">✓</text>

  <!-- 이벤트 카드 1 -->
  <rect x="40" y="280" width="460" height="160" rx="8" fill="white" filter="drop-shadow(0px 2px 4px rgba(0,0,0,0.1))"/>
  <text x="60" y="310" font-family="Arial" font-size="16" fill="#333" font-weight="bold">🎉 신년 맞이 특별 이벤트</text>
  <text x="60" y="335" font-family="Arial" font-size="13" fill="#6c757d">새해를 맞이하여 전체 회원에게 특별 보상 지급</text>

  <rect x="60" y="350" width="60" height="22" rx="4" fill="#dc3545"/>
  <text x="90" y="365" font-family="Arial" font-size="11" fill="white" text-anchor="middle">특별</text>

  <rect x="130" y="350" width="70" height="22" rx="4" fill="#198754"/>
  <text x="165" y="365" font-family="Arial" font-size="11" fill="white" text-anchor="middle">진행 중</text>

  <rect x="210" y="350" width="15" height="22" fill="transparent"/>
  <text x="215" y="365" font-family="Arial" font-size="20" fill="#198754">✓</text>
  <text x="230" y="365" font-family="Arial" font-size="11" fill="#6c757d">공개</text>

  <text x="60" y="395" font-family="Arial" font-size="12" fill="#495057" font-weight="600">시작:</text>
  <text x="100" y="395" font-family="Arial" font-size="12" fill="#6c757d">2025-01-01 00:00</text>
  <text x="250" y="395" font-family="Arial" font-size="12" fill="#495057" font-weight="600">종료:</text>
  <text x="290" y="395" font-family="Arial" font-size="12" fill="#6c757d">2025-01-07 23:59</text>

  <text x="60" y="415" font-family="Arial" font-size="11" fill="#adb5bd">생성일: 2024-12-20 | 관리자: 마녀봇</text>

  <!-- 이벤트 카드 2 -->
  <rect x="520" y="280" width="460" height="160" rx="8" fill="white" filter="drop-shadow(0px 2px 4px rgba(0,0,0,0.1))"/>
  <text x="540" y="310" font-family="Arial" font-size="16" fill="#333" font-weight="bold">🎂 회원 생일 축하 이벤트</text>
  <text x="540" y="335" font-family="Arial" font-size="13" fill="#6c757d">생일 맞은 회원에게 특별 선물 증정</text>

  <rect x="540" y="350" width="60" height="22" rx="4" fill="#0dcaf0"/>
  <text x="570" y="365" font-family="Arial" font-size="11" fill="#212529" text-anchor="middle">생일</text>

  <rect x="610" y="350" width="70" height="22" rx="4" fill="#ffc107"/>
  <text x="645" y="365" font-family="Arial" font-size="11" fill="#212529" text-anchor="middle">예정</text>

  <rect x="690" y="350" width="15" height="22" fill="transparent"/>
  <text x="695" y="365" font-family="Arial" font-size="20" fill="#198754">✓</text>
  <text x="710" y="365" font-family="Arial" font-size="11" fill="#6c757d">공개</text>

  <text x="540" y="395" font-family="Arial" font-size="12" fill="#495057" font-weight="600">시작:</text>
  <text x="580" y="395" font-family="Arial" font-size="12" fill="#6c757d">2025-02-01 00:00</text>
  <text x="730" y="395" font-family="Arial" font-size="12" fill="#495057" font-weight="600">종료:</text>
  <text x="770" y="395" font-family="Arial" font-size="12" fill="#6c757d">2025-02-28 23:59</text>

  <text x="540" y="415" font-family="Arial" font-size="11" fill="#adb5bd">생성일: 2025-01-15 | 관리자: 운영진A</text>
</svg>
