<svg width="1200" height="1000" xmlns="http://www.w3.org/2000/svg">
  <!-- 배경 -->
  <rect width="1200" height="1000" fill="#f8f9fa"/>

  <!-- 왼쪽 사이드바 -->
  <rect width="200" height="1000" fill="#2d3748"/>
  <text x="20" y="35" font-family="Arial" font-size="16" fill="white" font-weight="bold">✨ 마녀봇 관리</text>
  <line x1="20" y1="50" x2="180" y2="50" stroke="#4a5568" stroke-width="1"/>

  <rect x="10" y="70" width="180" height="40" rx="6" fill="transparent"/>
  <text x="30" y="95" font-family="Arial" font-size="13" fill="#a0aec0">📊 대시보드</text>

  <rect x="10" y="120" width="180" height="40" rx="6" fill="transparent"/>
  <text x="30" y="145" font-family="Arial" font-size="13" fill="#a0aec0">👥 유저 관리</text>

  <rect x="10" y="170" width="180" height="40" rx="6" fill="transparent"/>
  <text x="30" y="195" font-family="Arial" font-size="13" fill="#a0aec0">💰 재화</text>

  <!-- 콘텐츠 (활성) -->
  <rect x="10" y="220" width="180" height="40" rx="6" fill="#4299e1"/>
  <text x="30" y="245" font-family="Arial" font-size="13" fill="white" font-weight="600">📅 콘텐츠</text>

  <rect x="10" y="270" width="180" height="40" rx="6" fill="transparent"/>
  <text x="30" y="295" font-family="Arial" font-size="13" fill="#a0aec0">🛒 상점</text>

  <rect x="10" y="320" width="180" height="40" rx="6" fill="transparent"/>
  <text x="30" y="345" font-family="Arial" font-size="13" fill="#a0aec0">📋 로그</text>

  <rect x="10" y="370" width="180" height="40" rx="6" fill="transparent"/>
  <text x="30" y="395" font-family="Arial" font-size="13" fill="#a0aec0">⚙️ 설정</text>

  <!-- 메인 콘텐츠 영역 -->
  <text x="240" y="50" font-family="Arial" font-size="24" fill="#333" font-weight="bold">일정 및 이벤트 관리</text>
  <text x="240" y="75" font-family="Arial" font-size="13" fill="#6c757d">커뮤니티 일정을 관리하고 리뉴얼 기간을 설정합니다</text>

  <!-- 버튼들 -->
  <rect x="860" y="35" width="160" height="40" rx="4" fill="#6f42c1"/>
  <text x="940" y="60" font-family="Arial" font-size="14" fill="white" text-anchor="middle" font-weight="600">🔄 리뉴얼 기간 설정</text>

  <rect x="1040" y="35" width="140" height="40" rx="4" fill="#198754"/>
  <text x="1110" y="60" font-family="Arial" font-size="14" fill="white" text-anchor="middle" font-weight="600">+ 일정 등록</text>

  <!-- 통계 카드들 -->
  <rect x="240" y="100" width="220" height="100" rx="8" fill="white" filter="drop-shadow(0px 2px 4px rgba(0,0,0,0.1))"/>
  <text x="260" y="130" font-family="Arial" font-size="13" fill="#6c757d">전체 일정</text>
  <text x="260" y="165" font-family="Arial" font-size="32" fill="#333" font-weight="bold">15</text>
  <text x="390" y="175" font-family="Arial" font-size="36" fill="#0d6efd">📅</text>

  <rect x="480" y="100" width="220" height="100" rx="8" fill="white" filter="drop-shadow(0px 2px 4px rgba(0,0,0,0.1))"/>
  <text x="500" y="130" font-family="Arial" font-size="13" fill="#6c757d">진행 중</text>
  <text x="500" y="165" font-family="Arial" font-size="32" fill="#333" font-weight="bold">3</text>
  <text x="650" y="175" font-family="Arial" font-size="36" fill="#198754">▶️</text>

  <rect x="720" y="100" width="220" height="100" rx="8" fill="white" filter="drop-shadow(0px 2px 4px rgba(0,0,0,0.1))"/>
  <text x="740" y="130" font-family="Arial" font-size="13" fill="#6c757d">예정</text>
  <text x="740" y="165" font-family="Arial" font-size="32" fill="#333" font-weight="bold">5</text>
  <text x="890" y="175" font-family="Arial" font-size="36" fill="#ffc107">⏳</text>

  <rect x="960" y="100" width="220" height="100" rx="8" fill="white" filter="drop-shadow(0px 2px 4px rgba(0,0,0,0.1))"/>
  <text x="980" y="130" font-family="Arial" font-size="13" fill="#6c757d">종료</text>
  <text x="980" y="165" font-family="Arial" font-size="32" fill="#333" font-weight="bold">7</text>
  <text x="1130" y="175" font-family="Arial" font-size="36" fill="#6c757d">✓</text>

  <!-- 필터 및 검색 -->
  <text x="240" y="230" font-family="Arial" font-size="14" fill="#495057" font-weight="600">필터 및 검색</text>

  <rect x="240" y="240" width="200" height="35" rx="4" fill="white" stroke="#ced4da" stroke-width="1"/>
  <text x="255" y="263" font-family="Arial" font-size="13" fill="#495057">전체 학기/기간</text>
  <text x="415" y="263" font-family="Arial" font-size="13" fill="#adb5bd">▼</text>

  <rect x="460" y="240" width="150" height="35" rx="4" fill="white" stroke="#ced4da" stroke-width="1"/>
  <text x="475" y="263" font-family="Arial" font-size="13" fill="#495057">전체 상태</text>
  <text x="590" y="263" font-family="Arial" font-size="13" fill="#adb5bd">▼</text>

  <rect x="630" y="240" width="150" height="35" rx="4" fill="white" stroke="#ced4da" stroke-width="1"/>
  <text x="645" y="263" font-family="Arial" font-size="13" fill="#495057">전체 유형</text>
  <text x="760" y="263" font-family="Arial" font-size="13" fill="#adb5bd">▼</text>

  <!-- 현재 기간 정보 -->
  <rect x="240" y="295" width="940" height="60" rx="8" fill="#e7f5ff" stroke="#339af0" stroke-width="1"/>
  <text x="260" y="320" font-family="Arial" font-size="14" fill="#1971c2" font-weight="600">📌 현재 러닝 기간: Period 3 (2025-01-01 ~ 2025-06-30)</text>
  <text x="260" y="340" font-family="Arial" font-size="12" fill="#1971c2">러닝 기간 중이므로 커뮤니티가 정상 운영되며, 활동량 체크 및 재화 지급이 활성화됩니다 | 다음 리뉴얼: 2025-07-01</text>

  <!-- 일정 카드 1 -->
  <rect x="240" y="375" width="460" height="160" rx="8" fill="white" filter="drop-shadow(0px 2px 4px rgba(0,0,0,0.1))"/>
  <text x="260" y="405" font-family="Arial" font-size="16" fill="#333" font-weight="bold">🏰 호그스미드 방문 주간</text>
  <text x="260" y="430" font-family="Arial" font-size="13" fill="#6c757d">마법 마을 호그스미드 자유 방문 기간</text>

  <rect x="260" y="445" width="60" height="22" rx="4" fill="#6f42c1"/>
  <text x="290" y="460" font-family="Arial" font-size="11" fill="white" text-anchor="middle">외출</text>

  <rect x="330" y="445" width="70" height="22" rx="4" fill="#198754"/>
  <text x="365" y="460" font-family="Arial" font-size="11" fill="white" text-anchor="middle">진행 중</text>

  <rect x="410" y="445" width="15" height="22" fill="transparent"/>
  <text x="415" y="460" font-family="Arial" font-size="20" fill="#198754">✓</text>
  <text x="430" y="460" font-family="Arial" font-size="11" fill="#6c757d">공개</text>

  <text x="260" y="490" font-family="Arial" font-size="12" fill="#495057" font-weight="600">시작:</text>
  <text x="300" y="490" font-family="Arial" font-size="12" fill="#6c757d">2025-11-15 10:00</text>
  <text x="450" y="490" font-family="Arial" font-size="12" fill="#495057" font-weight="600">종료:</text>
  <text x="490" y="490" font-family="Arial" font-size="12" fill="#6c757d">2025-11-21 23:59</text>

  <text x="260" y="510" font-family="Arial" font-size="11" fill="#adb5bd">Period 3 | 관리자: 총괄</text>

  <rect x="260" y="515" width="80" height="25" rx="4" fill="white" stroke="#0d6efd" stroke-width="1"/>
  <text x="300" y="533" font-family="Arial" font-size="12" fill="#0d6efd" text-anchor="middle">상세</text>

  <!-- 일정 카드 2 -->
  <rect x="720" y="375" width="460" height="160" rx="8" fill="white" filter="drop-shadow(0px 2px 4px rgba(0,0,0,0.1))"/>
  <text x="740" y="405" font-family="Arial" font-size="16" fill="#333" font-weight="bold">🎄 크리스마스 대연회</text>
  <text x="740" y="430" font-family="Arial" font-size="13" fill="#6c757d">대강당에서 펼쳐지는 연말 축제</text>

  <rect x="740" y="445" width="60" height="22" rx="4" fill="#dc3545"/>
  <text x="770" y="460" font-family="Arial" font-size="11" fill="white" text-anchor="middle">특별</text>

  <rect x="810" y="445" width="70" height="22" rx="4" fill="#ffc107"/>
  <text x="845" y="460" font-family="Arial" font-size="11" fill="#212529" text-anchor="middle">예정</text>

  <rect x="890" y="445" width="15" height="22" fill="transparent"/>
  <text x="895" y="460" font-family="Arial" font-size="20" fill="#198754">✓</text>
  <text x="910" y="460" font-family="Arial" font-size="11" fill="#6c757d">공개</text>

  <text x="740" y="490" font-family="Arial" font-size="12" fill="#495057" font-weight="600">시작:</text>
  <text x="780" y="490" font-family="Arial" font-size="12" fill="#6c757d">2025-12-24 18:00</text>
  <text x="930" y="490" font-family="Arial" font-size="12" fill="#495057" font-weight="600">종료:</text>
  <text x="970" y="490" font-family="Arial" font-size="12" fill="#6c757d">2025-12-26 23:59</text>

  <text x="740" y="510" font-family="Arial" font-size="11" fill="#adb5bd">Period 3 | 관리자: 마녀봇</text>

  <rect x="740" y="515" width="80" height="25" rx="4" fill="white" stroke="#0d6efd" stroke-width="1"/>
  <text x="780" y="533" font-family="Arial" font-size="12" fill="#0d6efd" text-anchor="middle">상세</text>

  <!-- 모달 배경 (반투명) -->
  <rect x="0" y="0" width="1200" height="1000" fill="black" opacity="0.5"/>

  <!-- 일정 등록 모달창 -->
  <rect x="300" y="100" width="600" height="800" rx="8" fill="white" filter="drop-shadow(0px 4px 12px rgba(0,0,0,0.3))"/>

  <!-- 모달 헤더 -->
  <rect x="300" y="100" width="600" height="50" rx="8" fill="#f8f9fa"/>
  <text x="320" y="132" font-family="Arial" font-size="18" fill="#333" font-weight="bold">일정 등록</text>
  <text x="870" y="130" font-family="Arial" font-size="24" fill="#6c757d" cursor="pointer">×</text>

  <!-- 모달 내용 -->
  <text x="320" y="180" font-family="Arial" font-size="13" fill="#495057" font-weight="600">일정 제목 <text fill="#dc3545">*</text></text>
  <rect x="320" y="188" width="540" height="40" rx="4" fill="white" stroke="#ced4da" stroke-width="1"/>
  <text x="330" y="213" font-family="Arial" font-size="13" fill="#adb5bd">예: 봄맞이 축제</text>

  <text x="320" y="260" font-family="Arial" font-size="13" fill="#495057" font-weight="600">설명</text>
  <rect x="320" y="268" width="540" height="80" rx="4" fill="white" stroke="#ced4da" stroke-width="1"/>
  <text x="330" y="293" font-family="Arial" font-size="13" fill="#adb5bd">예: 봄을 맞이하여 대강당에서 축제를 개최합니다</text>

  <text x="320" y="380" font-family="Arial" font-size="13" fill="#495057" font-weight="600">시작 날짜 <text fill="#dc3545">*</text></text>
  <rect x="320" y="388" width="240" height="40" rx="4" fill="white" stroke="#ced4da" stroke-width="1"/>
  <text x="330" y="413" font-family="Arial" font-size="13" fill="#495057">2025-03-15</text>
  <text x="540" y="413" font-family="Arial" font-size="13" fill="#adb5bd">📅</text>

  <text x="320" y="460" font-family="Arial" font-size="13" fill="#495057" font-weight="600">시작 시간</text>
  <rect x="320" y="468" width="240" height="40" rx="4" fill="white" stroke="#ced4da" stroke-width="1"/>
  <text x="330" y="493" font-family="Arial" font-size="13" fill="#495057">14:00</text>
  <text x="540" y="493" font-family="Arial" font-size="13" fill="#adb5bd">🕐</text>

  <text x="620" y="380" font-family="Arial" font-size="13" fill="#495057" font-weight="600">종료 날짜</text>
  <rect x="620" y="388" width="240" height="40" rx="4" fill="white" stroke="#ced4da" stroke-width="1"/>
  <text x="630" y="413" font-family="Arial" font-size="13" fill="#495057">2025-03-17</text>
  <text x="840" y="413" font-family="Arial" font-size="13" fill="#adb5bd">📅</text>

  <text x="620" y="460" font-family="Arial" font-size="13" fill="#495057" font-weight="600">종료 시간</text>
  <rect x="620" y="468" width="240" height="40" rx="4" fill="white" stroke="#ced4da" stroke-width="1"/>
  <text x="630" y="493" font-family="Arial" font-size="13" fill="#495057">23:59</text>
  <text x="840" y="493" font-family="Arial" font-size="13" fill="#adb5bd">🕐</text>

  <text x="320" y="540" font-family="Arial" font-size="13" fill="#495057" font-weight="600">일정 유형 <text fill="#dc3545">*</text></text>
  <rect x="320" y="548" width="240" height="40" rx="4" fill="white" stroke="#ced4da" stroke-width="1"/>
  <text x="330" y="573" font-family="Arial" font-size="13" fill="#495057">커뮤니티 이벤트</text>
  <text x="540" y="573" font-family="Arial" font-size="13" fill="#adb5bd">▼</text>

  <!-- 유형 드롭다운 (펼쳐진 상태) -->
  <rect x="320" y="590" width="240" height="120" rx="4" fill="white" stroke="#0d6efd" stroke-width="2"/>
  <rect x="320" y="590" width="240" height="30" rx="4" fill="#e7f5ff"/>
  <text x="330" y="610" font-family="Arial" font-size="12" fill="#0d6efd" font-weight="600">커뮤니티 이벤트</text>

  <rect x="320" y="620" width="240" height="30" rx="4" fill="white"/>
  <text x="330" y="640" font-family="Arial" font-size="12" fill="#495057">공휴일</text>

  <rect x="320" y="650" width="240" height="30" rx="4" fill="white"/>
  <text x="330" y="670" font-family="Arial" font-size="12" fill="#495057">정기 이벤트</text>

  <rect x="320" y="680" width="240" height="30" rx="4" fill="white"/>
  <text x="330" y="700" font-family="Arial" font-size="12" fill="#495057">기타</text>

  <!-- 체크박스 옵션들 -->
  <text x="620" y="568" font-family="Arial" font-size="13" fill="#495057" font-weight="600">옵션</text>

  <rect x="620" y="578" width="18" height="18" rx="2" fill="white" stroke="#ced4da" stroke-width="1"/>
  <text x="625" y="593" font-family="Arial" font-size="14" fill="#198754">✓</text>
  <text x="648" y="593" font-family="Arial" font-size="13" fill="#495057">공개 일정 (유저가 @봇 일정으로 조회 가능)</text>

  <rect x="620" y="608" width="18" height="18" rx="2" fill="#6f42c1" stroke="#6f42c1" stroke-width="1"/>
  <text x="625" y="623" font-family="Arial" font-size="14" fill="white">✓</text>
  <text x="648" y="623" font-family="Arial" font-size="13" fill="#495057">리뉴얼 기간 (리뉴얼 기간)</text>

  <rect x="648" y="633" width="200" height="60" rx="4" fill="#fff3cd"/>
  <text x="658" y="653" font-family="Arial" font-size="11" fill="#856404">리뉴얼 기간 설정 시:</text>
  <text x="658" y="668" font-family="Arial" font-size="11" fill="#856404">• 활동량 체크 중단</text>
  <text x="658" y="683" font-family="Arial" font-size="11" fill="#856404">• 출석 트윗 중단</text>

  <text x="320" y="740" font-family="Arial" font-size="13" fill="#495057" font-weight="600">소속 기간</text>
  <rect x="320" y="748" width="240" height="40" rx="4" fill="white" stroke="#ced4da" stroke-width="1"/>
  <text x="330" y="773" font-family="Arial" font-size="13" fill="#495057">Period 3 (현재 러닝 기간)</text>
  <text x="540" y="773" font-family="Arial" font-size="13" fill="#adb5bd">▼</text>

  <!-- 모달 푸터 -->
  <line x1="300" y1="830" x2="900" y2="830" stroke="#dee2e6" stroke-width="1"/>

  <rect x="680" y="850" width="90" height="40" rx="4" fill="white" stroke="#ced4da" stroke-width="1"/>
  <text x="725" y="875" font-family="Arial" font-size="14" fill="#495057" text-anchor="middle">취소</text>

  <rect x="780" y="850" width="100" height="40" rx="4" fill="#0d6efd"/>
  <text x="830" y="875" font-family="Arial" font-size="14" fill="white" text-anchor="middle" font-weight="600">등록</text>
</svg>
