<svg width="1200" height="800" xmlns="http://www.w3.org/2000/svg">
  <!-- 배경 -->
  <rect width="1200" height="800" fill="#f8f9fa"/>

  <!-- 왼쪽 사이드바 -->
  <rect width="200" height="800" fill="#2d3748"/>
  <text x="20" y="35" font-family="Arial" font-size="16" fill="white" font-weight="bold">✨ 마녀봇 관리</text>
  <line x1="20" y1="50" x2="180" y2="50" stroke="#4a5568" stroke-width="1"/>

  <rect x="10" y="70" width="180" height="40" rx="6" fill="transparent"/>
  <text x="30" y="95" font-family="Arial" font-size="13" fill="#a0aec0">📊 대시보드</text>

  <rect x="10" y="120" width="180" height="40" rx="6" fill="transparent"/>
  <text x="30" y="145" font-family="Arial" font-size="13" fill="#a0aec0">👥 사용자</text>

  <rect x="10" y="170" width="180" height="40" rx="6" fill="transparent"/>
  <text x="30" y="195" font-family="Arial" font-size="13" fill="#a0aec0">⚠️ 활동량</text>

  <rect x="10" y="220" width="180" height="40" rx="6" fill="transparent"/>
  <text x="30" y="245" font-family="Arial" font-size="13" fill="#a0aec0">🎉 이벤트</text>

  <rect x="10" y="270" width="180" height="40" rx="6" fill="transparent"/>
  <text x="30" y="295" font-family="Arial" font-size="13" fill="#a0aec0">🛒 상점</text>

  <!-- 로그 (활성) -->
  <rect x="10" y="320" width="180" height="40" rx="6" fill="#4299e1"/>
  <text x="30" y="345" font-family="Arial" font-size="13" fill="white" font-weight="600">📋 로그</text>

  <rect x="10" y="370" width="180" height="40" rx="6" fill="transparent"/>
  <text x="30" y="395" font-family="Arial" font-size="13" fill="#a0aec0">⚙️ 설정</text>

  <!-- 메인 콘텐츠 영역 -->
  <text x="240" y="50" font-family="Arial" font-size="24" fill="#333" font-weight="bold">로그 관리</text>
  <text x="240" y="75" font-family="Arial" font-size="13" fill="#6c757d">관리자 활동 및 서버 헬스를 실시간으로 모니터링합니다</text>

  <!-- 탭 버튼들 -->
  <rect x="720" y="30" width="140" height="40" rx="6" fill="#0d6efd"/>
  <text x="790" y="55" font-family="Arial" font-size="14" fill="white" text-anchor="middle" font-weight="600">📋 관리자 로그</text>

  <rect x="880" y="30" width="120" height="40" rx="6" fill="white" stroke="#ced4da" stroke-width="1"/>
  <text x="940" y="55" font-family="Arial" font-size="14" fill="#495057" text-anchor="middle">🖥️ 서버 로그</text>

  <!-- 다운로드 버튼 -->
  <rect x="1020" y="30" width="150" height="40" rx="6" fill="#198754"/>
  <text x="1095" y="55" font-family="Arial" font-size="14" fill="white" text-anchor="middle" font-weight="600">📥 CSV 다운로드</text>

  <!-- 통계 카드들 -->
  <rect x="240" y="100" width="220" height="80" rx="8" fill="linear-gradient(135deg, #667eea 0%, #764ba2 100%)"/>
  <text x="260" y="125" font-family="Arial" font-size="12" fill="white">총 로그</text>
  <text x="260" y="160" font-family="Arial" font-size="28" fill="white" font-weight="bold">1,523</text>

  <rect x="480" y="100" width="220" height="80" rx="8" fill="linear-gradient(135deg, #f093fb 0%, #f5576c 100%)"/>
  <text x="500" y="125" font-family="Arial" font-size="12" fill="white">현재 페이지</text>
  <text x="500" y="160" font-family="Arial" font-size="28" fill="white" font-weight="bold">1 / 31</text>

  <!-- 필터 영역 -->
  <rect x="240" y="200" width="940" height="180" rx="8" fill="#e9ecef"/>

  <!-- 관리자 필터 -->
  <text x="260" y="225" font-family="Arial" font-size="13" fill="#495057" font-weight="600">관리자 필터</text>
  <rect x="260" y="235" width="200" height="35" rx="4" fill="white" stroke="#ced4da" stroke-width="1"/>
  <text x="270" y="258" font-family="Arial" font-size="13" fill="#495057">전체</text>
  <path d="M 445 247 L 450 252 L 445 257" stroke="#6c757d" stroke-width="2" fill="none"/>

  <!-- 날짜 범위 필터 -->
  <text x="490" y="225" font-family="Arial" font-size="13" fill="#495057" font-weight="600">날짜 범위</text>
  <rect x="490" y="235" width="140" height="35" rx="4" fill="white" stroke="#0d6efd" stroke-width="2"/>
  <text x="505" y="258" font-family="Arial" font-size="13" fill="#495057">📅 2025-11-01</text>
  <path d="M 615 247 L 620 252 L 615 257" stroke="#6c757d" stroke-width="2" fill="none"/>

  <text x="642" y="258" font-family="Arial" font-size="13" fill="#495057">~</text>

  <rect x="665" y="235" width="140" height="35" rx="4" fill="white" stroke="#0d6efd" stroke-width="2"/>
  <text x="680" y="258" font-family="Arial" font-size="13" fill="#495057">📅 2025-11-20</text>
  <path d="M 790 247 L 795 252 L 790 257" stroke="#6c757d" stroke-width="2" fill="none"/>

  <!-- 액션 타입 필터 (첫 번째 줄) -->
  <text x="260" y="300" font-family="Arial" font-size="13" fill="#495057" font-weight="600">액션 타입 필터</text>

  <rect x="260" y="315" width="15" height="15" rx="3" fill="#0d6efd" stroke="#0d6efd" stroke-width="2"/>
  <path d="M 263 323 L 268 328 L 275 318" stroke="white" stroke-width="2" fill="none"/>
  <text x="282" y="327" font-family="Arial" font-size="12" fill="#495057">재화 조정</text>

  <rect x="380" y="315" width="15" height="15" rx="3" fill="#0d6efd" stroke="#0d6efd" stroke-width="2"/>
  <path d="M 383 323 L 388 328 L 395 318" stroke="white" stroke-width="2" fill="none"/>
  <text x="402" y="327" font-family="Arial" font-size="12" fill="#495057">경고 발송</text>

  <rect x="500" y="315" width="15" height="15" rx="3" fill="#0d6efd" stroke="#0d6efd" stroke-width="2"/>
  <path d="M 503 323 L 508 328 L 515 318" stroke="white" stroke-width="2" fill="none"/>
  <text x="522" y="327" font-family="Arial" font-size="12" fill="#495057">휴식 승인</text>

  <rect x="620" y="315" width="15" height="15" rx="3" fill="white" stroke="#0d6efd" stroke-width="2"/>
  <text x="642" y="327" font-family="Arial" font-size="12" fill="#495057">이벤트 생성</text>

  <rect x="760" y="315" width="15" height="15" rx="3" fill="white" stroke="#0d6efd" stroke-width="2"/>
  <text x="782" y="327" font-family="Arial" font-size="12" fill="#495057">설정 변경</text>

  <rect x="880" y="315" width="15" height="15" rx="3" fill="white" stroke="#0d6efd" stroke-width="2"/>
  <text x="902" y="327" font-family="Arial" font-size="12" fill="#495057">상점 관리</text>

  <!-- 액션 타입 필터 (두 번째 줄) -->
  <rect x="260" y="345" width="15" height="15" rx="3" fill="white" stroke="#0d6efd" stroke-width="2"/>
  <text x="282" y="357" font-family="Arial" font-size="12" fill="#495057">스토리 관리</text>

  <rect x="380" y="345" width="15" height="15" rx="3" fill="white" stroke="#0d6efd" stroke-width="2"/>
  <text x="402" y="357" font-family="Arial" font-size="12" fill="#495057">공지 발송</text>

  <rect x="500" y="345" width="15" height="15" rx="3" fill="white" stroke="#0d6efd" stroke-width="2"/>
  <text x="522" y="357" font-family="Arial" font-size="12" fill="#495057">유저 관리</text>

  <!-- 로그 뷰어 (터미널 스타일) -->
  <rect x="240" y="400" width="940" height="330" rx="8" fill="#1e1e1e"/>
  <rect x="240" y="400" width="940" height="40" rx="8" fill="#2d2d30"/>
  <text x="260" y="425" font-family="Courier New" font-size="13" fill="white">🖥️ 로그 뷰어 (라인별)</text>

  <!-- 로그 라인들 -->
  <text x="260" y="465" font-family="Courier New" font-size="11" fill="#569cd6">2025-11-18 14:30:25</text>
  <text x="420" y="465" font-family="Courier New" font-size="11" fill="#4ec9b0">마녀봇</text>
  <text x="510" y="465" font-family="Courier New" font-size="11" fill="#4ec9b0" font-weight="bold">adjust_balance</text>
  <text x="640" y="465" font-family="Courier New" font-size="11" fill="#9cdcfe">→ user_123</text>
  <text x="760" y="465" font-family="Courier New" font-size="11" fill="#ce9178">+1000갈레온 지급</text>

  <text x="260" y="490" font-family="Courier New" font-size="11" fill="#569cd6">2025-11-18 14:15:10</text>
  <text x="420" y="490" font-family="Courier New" font-size="11" fill="#4ec9b0">운영진A</text>
  <text x="510" y="490" font-family="Courier New" font-size="11" fill="#f48771" font-weight="bold">create_warning</text>
  <text x="640" y="490" font-family="Courier New" font-size="11" fill="#9cdcfe">→ user_456</text>
  <text x="760" y="490" font-family="Courier New" font-size="11" fill="#ce9178">활동량 부족 경고</text>

  <text x="260" y="515" font-family="Courier New" font-size="11" fill="#569cd6">2025-11-18 13:45:33</text>
  <text x="420" y="515" font-family="Courier New" font-size="11" fill="#4ec9b0">총괄관리자</text>
  <text x="510" y="515" font-family="Courier New" font-size="11" fill="#4fc1ff" font-weight="bold">create_vacation</text>
  <text x="640" y="515" font-family="Courier New" font-size="11" fill="#9cdcfe">→ user_789</text>
  <text x="760" y="515" font-family="Courier New" font-size="11" fill="#ce9178">휴식 승인 (2025-11-20 ~ 2025-11-27)</text>

  <text x="260" y="540" font-family="Courier New" font-size="11" fill="#569cd6">2025-11-18 13:20:15</text>
  <text x="420" y="540" font-family="Courier New" font-size="11" fill="#4ec9b0">마녀봇</text>
  <text x="510" y="540" font-family="Courier New" font-size="11" fill="#b5cea8" font-weight="bold">create_event</text>
  <text x="640" y="540" font-family="Courier New" font-size="11" fill="#9cdcfe">-</text>
  <text x="760" y="540" font-family="Courier New" font-size="11" fill="#ce9178">신년 이벤트 생성</text>

  <text x="260" y="565" font-family="Courier New" font-size="11" fill="#569cd6">2025-11-18 12:50:42</text>
  <text x="420" y="565" font-family="Courier New" font-size="11" fill="#4ec9b0">운영진B</text>
  <text x="510" y="565" font-family="Courier New" font-size="11" fill="#c586c0" font-weight="bold">update_setting</text>
  <text x="640" y="565" font-family="Courier New" font-size="11" fill="#9cdcfe">-</text>
  <text x="760" y="565" font-family="Courier New" font-size="11" fill="#ce9178">activity_threshold 변경: 20 → 25</text>

  <text x="260" y="590" font-family="Courier New" font-size="11" fill="#569cd6">2025-11-18 11:30:18</text>
  <text x="420" y="590" font-family="Courier New" font-size="11" fill="#4ec9b0">마녀봇</text>
  <text x="510" y="590" font-family="Courier New" font-size="11" fill="#dcdcaa" font-weight="bold">create_shop_item</text>
  <text x="640" y="590" font-family="Courier New" font-size="11" fill="#9cdcfe">-</text>
  <text x="760" y="590" font-family="Courier New" font-size="11" fill="#ce9178">마법 지팡이 아이템 추가</text>

  <text x="260" y="615" font-family="Courier New" font-size="11" fill="#569cd6">2025-11-18 10:15:42</text>
  <text x="420" y="615" font-family="Courier New" font-size="11" fill="#4ec9b0">운영진A</text>
  <text x="510" y="615" font-family="Courier New" font-size="11" fill="#d4a5a5" font-weight="bold">create_story_event</text>
  <text x="640" y="615" font-family="Courier New" font-size="11" fill="#9cdcfe">-</text>
  <text x="760" y="615" font-family="Courier New" font-size="11" fill="#ce9178">호그스미드 방문 주간 스토리 생성</text>

  <text x="260" y="640" font-family="Courier New" font-size="11" fill="#569cd6">2025-11-18 09:05:33</text>
  <text x="420" y="640" font-family="Courier New" font-size="11" fill="#4ec9b0">총괄관리자</text>
  <text x="510" y="640" font-family="Courier New" font-size="11" fill="#4ec9b0" font-weight="bold">adjust_balance</text>
  <text x="640" y="640" font-family="Courier New" font-size="11" fill="#9cdcfe">→ user_999</text>
  <text x="760" y="640" font-family="Courier New" font-size="11" fill="#ce9178">+5000갈레온 지급 (이벤트 보상)</text>

  <text x="260" y="665" font-family="Courier New" font-size="11" fill="#569cd6">2025-11-18 08:20:10</text>
  <text x="420" y="665" font-family="Courier New" font-size="11" fill="#4ec9b0">운영진B</text>
  <text x="510" y="665" font-family="Courier New" font-size="11" fill="#569cd6" font-weight="bold">update_user_role</text>
  <text x="640" y="665" font-family="Courier New" font-size="11" fill="#9cdcfe">→ user_777</text>
  <text x="760" y="665" font-family="Courier New" font-size="11" fill="#ce9178">권한 변경: user → moderator</text>

  <text x="260" y="690" font-family="Courier New" font-size="11" fill="#569cd6">2025-11-18 07:45:55</text>
  <text x="420" y="690" font-family="Courier New" font-size="11" fill="#4ec9b0">마녀봇</text>
  <text x="510" y="690" font-family="Courier New" font-size="11" fill="#c586c0" font-weight="bold">scheduled_announcement</text>
  <text x="640" y="690" font-family="Courier New" font-size="11" fill="#9cdcfe">-</text>
  <text x="760" y="690" font-family="Courier New" font-size="11" fill="#ce9178">공지 예약 발송: 11월 이벤트 안내</text>
</svg>
