<svg width="1200" height="750" xmlns="http://www.w3.org/2000/svg">
  <!-- 배경 -->
  <rect width="1200" height="750" fill="#f8f9fa"/>

  <!-- 왼쪽 사이드바 -->
  <rect width="200" height="750" fill="#2d3748"/>
  <text x="20" y="35" font-family="Arial" font-size="16" fill="white" font-weight="bold">✨ 마녀봇 관리</text>
  <line x1="20" y1="50" x2="180" y2="50" stroke="#4a5568" stroke-width="1"/>

  <rect x="10" y="70" width="180" height="40" rx="6" fill="transparent"/>
  <text x="30" y="95" font-family="Arial" font-size="13" fill="#a0aec0">📊 대시보드</text>

  <rect x="10" y="120" width="180" height="40" rx="6" fill="transparent"/>
  <text x="30" y="145" font-family="Arial" font-size="13" fill="#a0aec0">👥 유저 관리</text>

  <!-- 콘텐츠 (활성) -->
  <rect x="10" y="170" width="180" height="40" rx="6" fill="#4299e1"/>
  <text x="30" y="195" font-family="Arial" font-size="13" fill="white" font-weight="600">📅 콘텐츠</text>

  <rect x="10" y="220" width="180" height="40" rx="6" fill="transparent"/>
  <text x="30" y="245" font-family="Arial" font-size="13" fill="#a0aec0">🛒 상점</text>

  <rect x="10" y="270" width="180" height="40" rx="6" fill="transparent"/>
  <text x="30" y="295" font-family="Arial" font-size="13" fill="#a0aec0">📋 로그</text>

  <rect x="10" y="320" width="180" height="40" rx="6" fill="transparent"/>
  <text x="30" y="345" font-family="Arial" font-size="13" fill="#a0aec0">⚙️ 설정</text>

  <!-- 메인 콘텐츠 영역 -->
  <text x="240" y="50" font-family="Arial" font-size="24" fill="#333" font-weight="bold">📹 스토리 이벤트 관리</text>
  <text x="240" y="75" font-family="Arial" font-size="13" fill="#6c757d">스토리 이벤트와 포스트를 관리합니다 (이벤트 단위로 여러 포스트를 일정 간격으로 발송)</text>

  <!-- 통계 카드들 -->
  <rect x="240" y="100" width="210" height="100" rx="8" fill="white" filter="drop-shadow(0px 2px 4px rgba(0,0,0,0.1))"/>
  <text x="260" y="130" font-family="Arial" font-size="13" fill="#6c757d">대기 중</text>
  <text x="260" y="165" font-family="Arial" font-size="32" fill="#333" font-weight="bold">5</text>
  <text x="385" y="175" font-family="Arial" font-size="36" fill="#ffc107">⏳</text>

  <rect x="470" y="100" width="210" height="100" rx="8" fill="white" filter="drop-shadow(0px 2px 4px rgba(0,0,0,0.1))"/>
  <text x="490" y="130" font-family="Arial" font-size="13" fill="#6c757d">진행 중</text>
  <text x="490" y="165" font-family="Arial" font-size="32" fill="#333" font-weight="bold">2</text>
  <text x="615" y="175" font-family="Arial" font-size="36" fill="#0dcaf0">▶️</text>

  <rect x="700" y="100" width="210" height="100" rx="8" fill="white" filter="drop-shadow(0px 2px 4px rgba(0,0,0,0.1))"/>
  <text x="720" y="130" font-family="Arial" font-size="13" fill="#6c757d">완료</text>
  <text x="720" y="165" font-family="Arial" font-size="32" fill="#333" font-weight="bold">12</text>
  <text x="845" y="175" font-family="Arial" font-size="36" fill="#198754">✅</text>

  <rect x="930" y="100" width="210" height="100" rx="8" fill="white" filter="drop-shadow(0px 2px 4px rgba(0,0,0,0.1))"/>
  <text x="950" y="130" font-family="Arial" font-size="13" fill="#6c757d">실패</text>
  <text x="950" y="165" font-family="Arial" font-size="32" fill="#333" font-weight="bold">1</text>
  <text x="1075" y="175" font-family="Arial" font-size="36" fill="#dc3545">❌</text>

  <!-- 이벤트 목록 카드 -->
  <rect x="240" y="230" width="940" height="480" rx="8" fill="white" filter="drop-shadow(0px 2px 4px rgba(0,0,0,0.1))"/>

  <!-- 카드 헤더 -->
  <text x="270" y="265" font-family="Arial" font-size="16" fill="#333" font-weight="bold">스토리 이벤트 목록</text>
  <rect x="900" y="245" width="110" height="32" rx="6" fill="#198754"/>
  <text x="905" y="267" font-family="Arial" font-size="13" fill="white" font-weight="600">+ 이벤트 생성</text>

  <rect x="1030" y="245" width="130" height="32" rx="6" fill="#0dcaf0"/>
  <text x="1037" y="267" font-family="Arial" font-size="12" fill="white" font-weight="600">📊 Excel 업로드</text>

  <!-- 안내 메시지 -->
  <rect x="270" y="285" width="890" height="50" rx="6" fill="#cfe2ff"/>
  <text x="290" y="310" font-family="Arial" font-size="13" fill="#052c65" font-weight="bold">ℹ️ API를 통해 관리:</text>
  <text x="310" y="328" font-family="Arial" font-size="12" fill="#052c65">자세한 기능은 /api/v1/story-events API를 사용하세요</text>

  <!-- 테이블 헤더 -->
  <rect x="270" y="350" width="890" height="40" rx="0" fill="#f8f9fa"/>
  <text x="285" y="375" font-family="Arial" font-size="12" fill="#495057" font-weight="bold">ID</text>
  <text x="330" y="375" font-family="Arial" font-size="12" fill="#495057" font-weight="bold">제목</text>
  <text x="520" y="375" font-family="Arial" font-size="12" fill="#495057" font-weight="bold">시작 시간</text>
  <text x="660" y="375" font-family="Arial" font-size="12" fill="#495057" font-weight="bold">간격</text>
  <text x="740" y="375" font-family="Arial" font-size="12" fill="#495057" font-weight="bold">포스트</text>
  <text x="830" y="375" font-family="Arial" font-size="12" fill="#495057" font-weight="bold">담당자</text>
  <text x="950" y="375" font-family="Arial" font-size="12" fill="#495057" font-weight="bold">상태</text>
  <text x="1050" y="375" font-family="Arial" font-size="12" fill="#495057" font-weight="bold">작업</text>

  <!-- 테이블 행 1 -->
  <line x1="270" y1="390" x2="1160" y2="390" stroke="#dee2e6" stroke-width="1"/>
  <text x="285" y="415" font-family="Arial" font-size="12" fill="#333">1</text>
  <text x="330" y="415" font-family="Arial" font-size="12" fill="#333">새해 인사 시리즈</text>
  <text x="520" y="415" font-family="Arial" font-size="11" fill="#333">2025-01-01 00:00</text>
  <text x="670" y="415" font-family="Arial" font-size="12" fill="#333">10분</text>
  <text x="750" y="415" font-family="Arial" font-size="12" fill="#333">3개</text>
  <text x="830" y="415" font-family="Arial" font-size="12" fill="#0d6efd">@admin</text>
  <rect x="945" y="400" width="60" height="22" rx="11" fill="#198754"/>
  <text x="952" y="415" font-family="Arial" font-size="11" fill="white">완료</text>
  <rect x="1050" y="400" width="90" height="24" rx="4" fill="#0d6efd"/>
  <text x="1095" y="417" font-family="Arial" font-size="11" fill="white" text-anchor="middle">상세</text>

  <!-- 테이블 행 2 -->
  <line x1="270" y1="435" x2="1160" y2="435" stroke="#dee2e6" stroke-width="1"/>
  <text x="285" y="460" font-family="Arial" font-size="12" fill="#333">2</text>
  <text x="330" y="460" font-family="Arial" font-size="12" fill="#333">생일 축하 메시지</text>
  <text x="520" y="460" font-family="Arial" font-size="11" fill="#333">2025-01-15 09:00</text>
  <text x="670" y="460" font-family="Arial" font-size="12" fill="#333">5분</text>
  <text x="750" y="460" font-family="Arial" font-size="12" fill="#333">4개</text>
  <text x="830" y="460" font-family="Arial" font-size="12" fill="#0d6efd">@manager</text>
  <rect x="945" y="445" width="60" height="22" rx="11" fill="#0dcaf0"/>
  <text x="945" y="460" font-family="Arial" font-size="11" fill="white">진행 중</text>
  <rect x="1050" y="445" width="90" height="24" rx="4" fill="#0d6efd"/>
  <text x="1095" y="462" font-family="Arial" font-size="11" fill="white" text-anchor="middle">상세</text>

  <!-- 테이블 행 3 -->
  <line x1="270" y1="480" x2="1160" y2="480" stroke="#dee2e6" stroke-width="1"/>
  <text x="285" y="505" font-family="Arial" font-size="12" fill="#333">3</text>
  <text x="330" y="505" font-family="Arial" font-size="12" fill="#333">이벤트 카운트다운</text>
  <text x="520" y="505" font-family="Arial" font-size="11" fill="#333">2025-02-01 00:00</text>
  <text x="670" y="505" font-family="Arial" font-size="12" fill="#333">60분</text>
  <text x="750" y="505" font-family="Arial" font-size="12" fill="#333">24개</text>
  <text x="830" y="505" font-family="Arial" font-size="12" fill="#0d6efd">@admin</text>
  <rect x="945" y="490" width="60" height="22" rx="11" fill="#ffc107"/>
  <text x="950" y="505" font-family="Arial" font-size="11" fill="#000">대기 중</text>
  <rect x="1050" y="490" width="90" height="24" rx="4" fill="#0d6efd"/>
  <text x="1095" y="507" font-family="Arial" font-size="11" fill="white" text-anchor="middle">상세</text>

  <!-- 테이블 행 4 -->
  <line x1="270" y1="525" x2="1160" y2="525" stroke="#dee2e6" stroke-width="1"/>
  <text x="285" y="550" font-family="Arial" font-size="12" fill="#333">4</text>
  <text x="330" y="550" font-family="Arial" font-size="12" fill="#333">마법 축제 안내</text>
  <text x="520" y="550" font-family="Arial" font-size="11" fill="#333">2025-03-01 12:00</text>
  <text x="670" y="550" font-family="Arial" font-size="12" fill="#333">15분</text>
  <text x="750" y="550" font-family="Arial" font-size="12" fill="#333">6개</text>
  <text x="830" y="550" font-family="Arial" font-size="12" fill="#0d6efd">@manager</text>
  <rect x="945" y="535" width="60" height="22" rx="11" fill="#ffc107"/>
  <text x="950" y="550" font-family="Arial" font-size="11" fill="#000">대기 중</text>
  <rect x="1050" y="535" width="90" height="24" rx="4" fill="#0d6efd"/>
  <text x="1095" y="552" font-family="Arial" font-size="11" fill="white" text-anchor="middle">상세</text>

  <!-- 테이블 행 5 -->
  <line x1="270" y1="570" x2="1160" y2="570" stroke="#dee2e6" stroke-width="1"/>
  <text x="285" y="595" font-family="Arial" font-size="12" fill="#333">5</text>
  <text x="330" y="595" font-family="Arial" font-size="12" fill="#333">주간 활동 요약</text>
  <text x="520" y="595" font-family="Arial" font-size="11" fill="#333">2025-01-20 18:00</text>
  <text x="670" y="595" font-family="Arial" font-size="12" fill="#333">30분</text>
  <text x="750" y="595" font-family="Arial" font-size="12" fill="#333">7개</text>
  <text x="830" y="595" font-family="Arial" font-size="12" fill="#0d6efd">@admin</text>
  <rect x="945" y="580" width="60" height="22" rx="11" fill="#ffc107"/>
  <text x="950" y="595" font-family="Arial" font-size="11" fill="#000">대기 중</text>
  <rect x="1050" y="580" width="90" height="24" rx="4" fill="#0d6efd"/>
  <text x="1095" y="597" font-family="Arial" font-size="11" fill="white" text-anchor="middle">상세</text>

  <!-- 테이블 하단 경계 -->
  <line x1="270" y1="615" x2="1160" y2="615" stroke="#dee2e6" stroke-width="1"/>

  <!-- 페이지네이션 -->
  <rect x="520" y="640" width="240" height="40" rx="6" fill="white" filter="drop-shadow(0px 1px 3px rgba(0,0,0,0.1))"/>
  <rect x="530" y="650" width="70" height="24" rx="4" fill="#6c757d"/>
  <text x="565" y="667" font-family="Arial" font-size="12" fill="white" text-anchor="middle">이전</text>

  <rect x="615" y="650" width="30" height="24" rx="4" fill="#0d6efd"/>
  <text x="630" y="667" font-family="Arial" font-size="12" fill="white" text-anchor="middle" font-weight="bold">1</text>

  <rect x="660" y="650" width="70" height="24" rx="4" fill="#e9ecef"/>
  <text x="695" y="667" font-family="Arial" font-size="12" fill="#6c757d" text-anchor="middle">다음</text>
</svg>
