<svg width="1200" height="700" xmlns="http://www.w3.org/2000/svg">
  <!-- 배경 -->
  <rect width="1200" height="700" fill="#f8f9fa"/>

  <!-- 왼쪽 사이드바 -->
  <rect width="200" height="700" fill="#2d3748"/>
  <text x="20" y="35" font-family="Arial" font-size="16" fill="white" font-weight="bold">✨ 마녀봇 관리</text>
  <line x1="20" y1="50" x2="180" y2="50" stroke="#4a5568" stroke-width="1"/>

  <rect x="10" y="70" width="180" height="40" rx="6" fill="transparent"/>
  <text x="30" y="95" font-family="Arial" font-size="13" fill="#a0aec0">📊 대시보드</text>

  <rect x="10" y="120" width="180" height="40" rx="6" fill="transparent"/>
  <text x="30" y="145" font-family="Arial" font-size="13" fill="#a0aec0">👥 사용자</text>

  <rect x="10" y="170" width="180" height="40" rx="6" fill="transparent"/>
  <text x="30" y="195" font-family="Arial" font-size="13" fill="#a0aec0">⚠️ 활동량</text>

  <!-- 콘텐츠 그룹 (활성) -->
  <rect x="10" y="220" width="180" height="40" rx="6" fill="#4299e1"/>
  <text x="30" y="245" font-family="Arial" font-size="13" fill="white" font-weight="600">📅 콘텐츠 ▼</text>

  <!-- 콘텐츠 서브메뉴 -->
  <rect x="20" y="265" width="170" height="30" rx="4" fill="transparent"/>
  <text x="40" y="285" font-family="Arial" font-size="12" fill="#cbd5e0">• 일정 관리</text>

  <rect x="20" y="295" width="170" height="30" rx="4" fill="#3182ce"/>
  <text x="40" y="315" font-family="Arial" font-size="12" fill="white" font-weight="600">• 스토리 이벤트</text>

  <rect x="20" y="325" width="170" height="30" rx="4" fill="transparent"/>
  <text x="40" y="345" font-family="Arial" font-size="12" fill="#cbd5e0">• 공지 예약</text>

  <rect x="10" y="370" width="180" height="40" rx="6" fill="transparent"/>
  <text x="30" y="395" font-family="Arial" font-size="13" fill="#a0aec0">🛒 상점</text>

  <rect x="10" y="420" width="180" height="40" rx="6" fill="transparent"/>
  <text x="30" y="445" font-family="Arial" font-size="13" fill="#a0aec0">📋 로그</text>

  <rect x="10" y="470" width="180" height="40" rx="6" fill="transparent"/>
  <text x="30" y="495" font-family="Arial" font-size="13" fill="#a0aec0">⚙️ 설정</text>

  <!-- 메인 콘텐츠 영역 -->
  <text x="240" y="50" font-family="Arial" font-size="24" fill="#333" font-weight="bold">📹 스토리 이벤트 관리</text>
  <text x="240" y="75" font-family="Arial" font-size="13" fill="#6c757d">스토리 이벤트와 포스트를 관리합니다 (이벤트 단위로 여러 포스트를 일정 간격으로 발송)</text>

  <!-- 통계 카드들 -->
  <rect x="240" y="100" width="210" height="100" rx="8" fill="white" filter="drop-shadow(0px 2px 4px rgba(0,0,0,0.1))"/>
  <text x="260" y="130" font-family="Arial" font-size="13" fill="#6c757d">대기 중</text>
  <text x="260" y="165" font-family="Arial" font-size="32" fill="#333" font-weight="bold">5</text>
  <text x="385" y="175" font-family="Arial" font-size="36" fill="#ffc107">⏳</text>

  <rect x="470" y="100" width="210" height="100" rx="8" fill="white" filter="drop-shadow(0px 2px 4px rgba(0,0,0,0.1))"/>
  <text x="490" y="130" font-family="Arial" font-size="13" fill="#6c757d">진행 중</text>
  <text x="490" y="165" font-family="Arial" font-size="32" fill="#333" font-weight="bold">2</text>
  <text x="615" y="175" font-family="Arial" font-size="36" fill="#0dcaf0">▶️</text>

  <rect x="700" y="100" width="210" height="100" rx="8" fill="white" filter="drop-shadow(0px 2px 4px rgba(0,0,0,0.1))"/>
  <text x="720" y="130" font-family="Arial" font-size="13" fill="#6c757d">완료</text>
  <text x="720" y="165" font-family="Arial" font-size="32" fill="#333" font-weight="bold">12</text>
  <text x="845" y="175" font-family="Arial" font-size="36" fill="#198754">✅</text>

  <rect x="930" y="100" width="210" height="100" rx="8" fill="white" filter="drop-shadow(0px 2px 4px rgba(0,0,0,0.1))"/>
  <text x="950" y="130" font-family="Arial" font-size="13" fill="#6c757d">실패</text>
  <text x="950" y="165" font-family="Arial" font-size="32" fill="#333" font-weight="bold">1</text>
  <text x="1075" y="175" font-family="Arial" font-size="36" fill="#dc3545">❌</text>

  <!-- 이벤트 목록 카드 -->
  <rect x="240" y="230" width="900" height="440" rx="8" fill="white" filter="drop-shadow(0px 2px 4px rgba(0,0,0,0.1))"/>

  <!-- 카드 헤더 -->
  <text x="270" y="265" font-family="Arial" font-size="16" fill="#333" font-weight="bold">스토리 이벤트 목록</text>
  <rect x="1020" y="245" width="100" height="32" rx="6" fill="#0dcaf0"/>
  <text x="1027" y="267" font-family="Arial" font-size="12" fill="white" font-weight="600">📝 API 문서</text>

  <!-- 안내 메시지 -->
  <rect x="270" y="285" width="850" height="65" rx="6" fill="#cfe2ff"/>
  <text x="290" y="310" font-family="Arial" font-size="13" fill="#052c65" font-weight="bold">ℹ️ API를 통해 관리:</text>
  <text x="310" y="330" font-family="Arial" font-size="12" fill="#052c65">현재 UI는 간략하게 구현되어 있습니다. 자세한 기능은 /api/v1/story-events API를 사용하세요.</text>

  <!-- 테이블 헤더 -->
  <rect x="270" y="365" width="850" height="40" rx="0" fill="#f8f9fa"/>
  <text x="285" y="390" font-family="Arial" font-size="12" fill="#495057" font-weight="bold">ID</text>
  <text x="345" y="390" font-family="Arial" font-size="12" fill="#495057" font-weight="bold">제목</text>
  <text x="555" y="390" font-family="Arial" font-size="12" fill="#495057" font-weight="bold">시작 시간</text>
  <text x="715" y="390" font-family="Arial" font-size="12" fill="#495057" font-weight="bold">간격(분)</text>
  <text x="825" y="390" font-family="Arial" font-size="12" fill="#495057" font-weight="bold">포스트 수</text>
  <text x="940" y="390" font-family="Arial" font-size="12" fill="#495057" font-weight="bold">상태</text>
  <text x="1030" y="390" font-family="Arial" font-size="12" fill="#495057" font-weight="bold">생성일</text>

  <!-- 테이블 행 1 -->
  <line x1="270" y1="405" x2="1120" y2="405" stroke="#dee2e6" stroke-width="1"/>
  <text x="285" y="430" font-family="Arial" font-size="12" fill="#333">1</text>
  <text x="345" y="430" font-family="Arial" font-size="12" fill="#333">새해 인사 시리즈</text>
  <text x="555" y="430" font-family="Arial" font-size="12" fill="#333">2025-01-01 00:00</text>
  <text x="735" y="430" font-family="Arial" font-size="12" fill="#333">10</text>
  <text x="855" y="430" font-family="Arial" font-size="12" fill="#333">3</text>
  <rect x="935" y="415" width="65" height="22" rx="11" fill="#198754"/>
  <text x="945" y="430" font-family="Arial" font-size="11" fill="white">완료</text>
  <text x="1030" y="430" font-family="Arial" font-size="12" fill="#6c757d">2024-12-20</text>

  <!-- 테이블 행 2 -->
  <line x1="270" y1="445" x2="1120" y2="445" stroke="#dee2e6" stroke-width="1"/>
  <text x="285" y="470" font-family="Arial" font-size="12" fill="#333">2</text>
  <text x="345" y="470" font-family="Arial" font-size="12" fill="#333">생일 축하 메시지</text>
  <text x="555" y="470" font-family="Arial" font-size="12" fill="#333">2025-01-15 09:00</text>
  <text x="735" y="470" font-family="Arial" font-size="12" fill="#333">5</text>
  <text x="855" y="470" font-family="Arial" font-size="12" fill="#333">4</text>
  <rect x="935" y="455" width="65" height="22" rx="11" fill="#0dcaf0"/>
  <text x="938" y="470" font-family="Arial" font-size="11" fill="white">진행 중</text>
  <text x="1030" y="470" font-family="Arial" font-size="12" fill="#6c757d">2025-01-10</text>

  <!-- 테이블 행 3 -->
  <line x1="270" y1="485" x2="1120" y2="485" stroke="#dee2e6" stroke-width="1"/>
  <text x="285" y="510" font-family="Arial" font-size="12" fill="#333">3</text>
  <text x="345" y="510" font-family="Arial" font-size="12" fill="#333">이벤트 카운트다운</text>
  <text x="555" y="510" font-family="Arial" font-size="12" fill="#333">2025-02-01 00:00</text>
  <text x="735" y="510" font-family="Arial" font-size="12" fill="#333">60</text>
  <text x="855" y="510" font-family="Arial" font-size="12" fill="#333">24</text>
  <rect x="935" y="495" width="65" height="22" rx="11" fill="#ffc107"/>
  <text x="943" y="510" font-family="Arial" font-size="11" fill="#000">대기 중</text>
  <text x="1030" y="510" font-family="Arial" font-size="12" fill="#6c757d">2025-01-18</text>

  <!-- 테이블 행 4 -->
  <line x1="270" y1="525" x2="1120" y2="525" stroke="#dee2e6" stroke-width="1"/>
  <text x="285" y="550" font-family="Arial" font-size="12" fill="#333">4</text>
  <text x="345" y="550" font-family="Arial" font-size="12" fill="#333">마법 축제 안내</text>
  <text x="555" y="550" font-family="Arial" font-size="12" fill="#333">2025-03-01 12:00</text>
  <text x="735" y="550" font-family="Arial" font-size="12" fill="#333">15</text>
  <text x="855" y="550" font-family="Arial" font-size="12" fill="#333">6</text>
  <rect x="935" y="535" width="65" height="22" rx="11" fill="#ffc107"/>
  <text x="943" y="550" font-family="Arial" font-size="11" fill="#000">대기 중</text>
  <text x="1030" y="550" font-family="Arial" font-size="12" fill="#6c757d">2025-01-19</text>

  <!-- 테이블 행 5 -->
  <line x1="270" y1="565" x2="1120" y2="565" stroke="#dee2e6" stroke-width="1"/>
  <text x="285" y="590" font-family="Arial" font-size="12" fill="#333">5</text>
  <text x="345" y="590" font-family="Arial" font-size="12" fill="#333">주간 활동 요약</text>
  <text x="555" y="590" font-family="Arial" font-size="12" fill="#333">2025-01-20 18:00</text>
  <text x="735" y="590" font-family="Arial" font-size="12" fill="#333">30</text>
  <text x="855" y="590" font-family="Arial" font-size="12" fill="#333">7</text>
  <rect x="935" y="575" width="65" height="22" rx="11" fill="#ffc107"/>
  <text x="943" y="590" font-family="Arial" font-size="11" fill="#000">대기 중</text>
  <text x="1030" y="590" font-family="Arial" font-size="12" fill="#6c757d">2025-01-20</text>

  <!-- 테이블 하단 경계 -->
  <line x1="270" y1="605" x2="1120" y2="605" stroke="#dee2e6" stroke-width="1"/>

  <!-- Empty state message (만약 이벤트가 없을 때) -->
  <!-- <text x="655" y="500" font-family="Arial" font-size="14" fill="#6c757d" text-anchor="middle">이벤트가 없습니다</text> -->
</svg>
