<svg width="1200" height="900" xmlns="http://www.w3.org/2000/svg">
  <!-- 배경 -->
  <rect width="1200" height="900" fill="#f8f9fa"/>

  <!-- 왼쪽 사이드바 -->
  <rect width="200" height="900" fill="#2d3748"/>
  <text x="20" y="35" font-family="Arial" font-size="16" fill="white" font-weight="bold">✨ 마녀봇 관리</text>
  <line x1="20" y1="50" x2="180" y2="50" stroke="#4a5568" stroke-width="1"/>

  <rect x="10" y="70" width="180" height="40" rx="6" fill="transparent"/>
  <text x="30" y="95" font-family="Arial" font-size="13" fill="#a0aec0">📊 대시보드</text>

  <!-- 사용자 (활성) -->
  <rect x="10" y="120" width="180" height="40" rx="6" fill="#4299e1"/>
  <text x="30" y="145" font-family="Arial" font-size="13" fill="white" font-weight="600">👥 사용자</text>

  <rect x="10" y="170" width="180" height="40" rx="6" fill="transparent"/>
  <text x="30" y="195" font-family="Arial" font-size="13" fill="#a0aec0">⚠️ 활동량</text>

  <rect x="10" y="220" width="180" height="40" rx="6" fill="transparent"/>
  <text x="30" y="245" font-family="Arial" font-size="13" fill="#a0aec0">🎉 이벤트</text>

  <rect x="10" y="270" width="180" height="40" rx="6" fill="transparent"/>
  <text x="30" y="295" font-family="Arial" font-size="13" fill="#a0aec0">🛒 상점</text>

  <rect x="10" y="320" width="180" height="40" rx="6" fill="transparent"/>
  <text x="30" y="345" font-family="Arial" font-size="13" fill="#a0aec0">📋 로그</text>

  <rect x="10" y="370" width="180" height="40" rx="6" fill="transparent"/>
  <text x="30" y="395" font-family="Arial" font-size="13" fill="#a0aec0">⚙️ 설정</text>

  <!-- 메인 콘텐츠 영역 -->
  <!-- 제목 -->
  <text x="240" y="50" font-family="Arial" font-size="24" fill="#333" font-weight="bold">사용자 상세 정보</text>
  <text x="240" y="75" font-family="Arial" font-size="13" fill="#6c757d">@user123 (김민준) 님의 상세 정보</text>

  <!-- 통계 카드 4개 -->
  <rect x="240" y="100" width="220" height="100" rx="8" fill="white" filter="drop-shadow(0px 2px 4px rgba(0,0,0,0.1))"/>
  <text x="260" y="130" font-family="Arial" font-size="13" fill="#6c757d">현재 잔액</text>
  <text x="260" y="170" font-family="Arial" font-size="28" fill="#333" font-weight="bold">35,200원</text>
  <text x="400" y="180" font-family="Arial" font-size="32" fill="#198754">💰</text>

  <rect x="480" y="100" width="220" height="100" rx="8" fill="white" filter="drop-shadow(0px 2px 4px rgba(0,0,0,0.1))"/>
  <text x="500" y="130" font-family="Arial" font-size="13" fill="#6c757d">48시간 답글</text>
  <text x="500" y="170" font-family="Arial" font-size="28" fill="#333" font-weight="bold">42개</text>
  <text x="660" y="180" font-family="Arial" font-size="32" fill="#0d6efd">💬</text>

  <rect x="720" y="100" width="220" height="100" rx="8" fill="white" filter="drop-shadow(0px 2px 4px rgba(0,0,0,0.1))"/>
  <text x="740" y="130" font-family="Arial" font-size="13" fill="#6c757d">경고 횟수</text>
  <text x="740" y="170" font-family="Arial" font-size="28" fill="#333" font-weight="bold">0회</text>
  <text x="900" y="180" font-family="Arial" font-size="32" fill="#28a745">✓</text>

  <rect x="960" y="100" width="220" height="100" rx="8" fill="white" filter="drop-shadow(0px 2px 4px rgba(0,0,0,0.1))"/>
  <text x="980" y="130" font-family="Arial" font-size="13" fill="#6c757d">휴식 상태</text>
  <rect x="980" y="150" width="70" height="28" rx="4" fill="#28a745"/>
  <text x="1015" y="170" font-family="Arial" font-size="13" fill="white" text-anchor="middle">활동 중</text>
  <text x="1120" y="180" font-family="Arial" font-size="32" fill="#28a745">🏃</text>

  <!-- 기본 정보 카드 -->
  <rect x="240" y="220" width="940" height="140" rx="8" fill="white" filter="drop-shadow(0px 2px 4px rgba(0,0,0,0.1))"/>
  <text x="260" y="250" font-family="Arial" font-size="16" fill="#333" font-weight="bold">기본 정보</text>

  <text x="280" y="290" font-family="Arial" font-size="13" fill="#495057" font-weight="600">사용자명</text>
  <text x="280" y="315" font-family="Arial" font-size="13" fill="#6c757d">@user123</text>

  <text x="480" y="290" font-family="Arial" font-size="13" fill="#495057" font-weight="600">표시명</text>
  <text x="480" y="315" font-family="Arial" font-size="13" fill="#6c757d">김민준</text>

  <text x="680" y="290" font-family="Arial" font-size="13" fill="#495057" font-weight="600">역할</text>
  <rect x="680" y="298" width="60" height="22" rx="4" fill="#6c757d"/>
  <text x="710" y="313" font-family="Arial" font-size="11" fill="white" text-anchor="middle">사용자</text>

  <text x="880" y="290" font-family="Arial" font-size="13" fill="#495057" font-weight="600">최종 활동</text>
  <text x="880" y="315" font-family="Arial" font-size="13" fill="#6c757d">2025-11-20 14:35</text>

  <!-- 거래 내역 -->
  <rect x="240" y="380" width="940" height="200" rx="8" fill="white" filter="drop-shadow(0px 2px 4px rgba(0,0,0,0.1))"/>
  <rect x="240" y="380" width="940" height="50" rx="8" fill="#f8f9fa"/>
  <text x="260" y="410" font-family="Arial" font-size="16" fill="#333" font-weight="bold">💸 거래 내역</text>
  <rect x="1100" y="395" width="60" height="24" rx="12" fill="#198754"/>
  <text x="1130" y="412" font-family="Arial" font-size="11" fill="white" text-anchor="middle">12건</text>

  <!-- 거래 내역 리스트 -->
  <text x="260" y="460" font-family="Arial" font-size="12" fill="#495057">2025-11-20 16:00</text>
  <text x="400" y="460" font-family="Arial" font-size="12" fill="#198754" font-weight="600">+840원</text>
  <text x="520" y="460" font-family="Arial" font-size="12" fill="#6c757d">정산 지급 (답글 84개)</text>

  <text x="260" y="490" font-family="Arial" font-size="12" fill="#495057">2025-11-19 04:00</text>
  <text x="400" y="490" font-family="Arial" font-size="12" fill="#198754" font-weight="600">+920원</text>
  <text x="520" y="490" font-family="Arial" font-size="12" fill="#6c757d">정산 지급 (답글 92개)</text>

  <text x="260" y="520" font-family="Arial" font-size="12" fill="#495057">2025-11-18 10:30</text>
  <text x="400" y="520" font-family="Arial" font-size="12" fill="#dc3545" font-weight="600">-5,000원</text>
  <text x="520" y="520" font-family="Arial" font-size="12" fill="#6c757d">상점 구매 (프로필 뱃지)</text>

  <text x="260" y="550" font-family="Arial" font-size="12" fill="#495057">2025-11-17 16:00</text>
  <text x="400" y="550" font-family="Arial" font-size="12" fill="#198754" font-weight="600">+750원</text>
  <text x="520" y="550" font-family="Arial" font-size="12" fill="#6c757d">정산 지급 (답글 75개)</text>

  <!-- 경고 내역 -->
  <rect x="240" y="600" width="460" height="140" rx="8" fill="white" filter="drop-shadow(0px 2px 4px rgba(0,0,0,0.1))"/>
  <rect x="240" y="600" width="460" height="50" rx="8" fill="#f8f9fa"/>
  <text x="260" y="630" font-family="Arial" font-size="16" fill="#333" font-weight="bold">⚠️ 경고 내역</text>
  <rect x="620" y="615" width="60" height="24" rx="12" fill="#6c757d"/>
  <text x="650" y="632" font-family="Arial" font-size="11" fill="white" text-anchor="middle">0건</text>

  <text x="430" y="695" font-family="Arial" font-size="13" fill="#6c757d" text-anchor="middle">경고 내역이 없습니다</text>

  <!-- 휴식 내역 -->
  <rect x="720" y="600" width="460" height="140" rx="8" fill="white" filter="drop-shadow(0px 2px 4px rgba(0,0,0,0.1))"/>
  <rect x="720" y="600" width="460" height="50" rx="8" fill="#f8f9fa"/>
  <text x="740" y="630" font-family="Arial" font-size="16" fill="#333" font-weight="bold">🏖️ 휴식 내역</text>
  <rect x="1100" y="615" width="60" height="24" rx="12" fill="#0dcaf0"/>
  <text x="1130" y="632" font-family="Arial" font-size="11" fill="#212529" text-anchor="middle">1건</text>

  <text x="760" y="680" font-family="Arial" font-size="12" fill="#495057">2025-09-15 ~ 2025-09-22</text>
  <text x="760" y="705" font-family="Arial" font-size="11" fill="#6c757d">사유: 개인 사정으로 인한 휴식 | 승인자: 총괄관리자</text>
</svg>
