<svg width="1000" height="700" xmlns="http://www.w3.org/2000/svg">
  <!-- 배경 -->
  <rect width="1000" height="700" fill="#f8f9fa"/>

  <!-- 네비게이션 바 -->
  <rect width="1000" height="60" fill="#212529"/>
  <text x="20" y="38" font-family="Arial" font-size="18" fill="white" font-weight="bold">✨ 마녀봇 관리</text>
  <text x="200" y="38" font-family="Arial" font-size="14" fill="#6c757d">대시보드</text>
  <text x="300" y="38" font-family="Arial" font-size="14" fill="#adb5bd">사용자</text>
  <text x="400" y="38" font-family="Arial" font-size="14" fill="#6c757d">이벤트</text>

  <!-- 제목 -->
  <text x="40" y="110" font-family="Arial" font-size="24" fill="#333" font-weight="bold">사용자 관리</text>
  <text x="40" y="135" font-family="Arial" font-size="13" fill="#6c757d">커뮤니티 사용자를 관리하고 조회합니다</text>

  <!-- 검색 필터 카드 -->
  <rect x="40" y="160" width="940" height="80" rx="8" fill="white" filter="drop-shadow(0px 2px 4px rgba(0,0,0,0.1))"/>
  <text x="60" y="185" font-family="Arial" font-size="13" fill="#495057" font-weight="600">검색</text>
  <rect x="60" y="195" width="300" height="35" rx="4" fill="white" stroke="#ced4da" stroke-width="1"/>
  <text x="70" y="218" font-family="Arial" font-size="13" fill="#adb5bd">사용자명 또는 ID 검색</text>

  <text x="390" y="185" font-family="Arial" font-size="13" fill="#495057" font-weight="600">역할</text>
  <rect x="390" y="195" width="150" height="35" rx="4" fill="white" stroke="#ced4da" stroke-width="1"/>
  <text x="400" y="218" font-family="Arial" font-size="13" fill="#495057">전체</text>

  <rect x="880" y="195" width="80" height="35" rx="4" fill="#0d6efd"/>
  <text x="920" y="218" font-family="Arial" font-size="13" fill="white" text-anchor="middle" font-weight="500">검색</text>

  <!-- 테이블 -->
  <rect x="40" y="260" width="940" height="400" rx="8" fill="white" filter="drop-shadow(0px 2px 4px rgba(0,0,0,0.1))"/>

  <!-- 테이블 헤더 -->
  <rect x="40" y="260" width="940" height="40" rx="8" fill="#f8f9fa"/>
  <text x="60" y="285" font-family="Arial" font-size="12" fill="#495057" font-weight="600">사용자명</text>
  <text x="200" y="285" font-family="Arial" font-size="12" fill="#495057" font-weight="600">표시명</text>
  <text x="340" y="285" font-family="Arial" font-size="12" fill="#495057" font-weight="600">역할</text>
  <text x="460" y="285" font-family="Arial" font-size="12" fill="#495057" font-weight="600">잔액</text>
  <text x="560" y="285" font-family="Arial" font-size="12" fill="#495057" font-weight="600">경고</text>
  <text x="660" y="285" font-family="Arial" font-size="12" fill="#495057" font-weight="600">휴가 상태</text>
  <text x="780" y="285" font-family="Arial" font-size="12" fill="#495057" font-weight="600">최종 활동</text>
  <text x="910" y="285" font-family="Arial" font-size="12" fill="#495057" font-weight="600">액션</text>

  <!-- 테이블 행 1 -->
  <line x1="40" y1="300" x2="980" y2="300" stroke="#dee2e6" stroke-width="1"/>
  <text x="60" y="330" font-family="Arial" font-size="13" fill="#0d6efd">@user123</text>
  <text x="200" y="330" font-family="Arial" font-size="13" fill="#495057">김민준</text>
  <rect x="340" y="318" width="80" height="22" rx="4" fill="#6c757d"/>
  <text x="380" y="333" font-family="Arial" font-size="11" fill="white" text-anchor="middle">사용자</text>
  <text x="460" y="330" font-family="Arial" font-size="13" fill="#495057">15,420원</text>
  <text x="560" y="330" font-family="Arial" font-size="13" fill="#6c757d">없음</text>
  <text x="660" y="330" font-family="Arial" font-size="13" fill="#198754">활동 중</text>
  <text x="780" y="330" font-family="Arial" font-size="12" fill="#6c757d">2025-11-18</text>
  <rect x="910" y="318" width="50" height="24" rx="4" fill="white" stroke="#0d6efd" stroke-width="1"/>
  <text x="935" y="333" font-family="Arial" font-size="11" fill="#0d6efd" text-anchor="middle">상세</text>

  <!-- 테이블 행 2 -->
  <line x1="40" y1="350" x2="980" y2="350" stroke="#dee2e6" stroke-width="1"/>
  <text x="60" y="380" font-family="Arial" font-size="13" fill="#0d6efd">@user456</text>
  <text x="200" y="380" font-family="Arial" font-size="13" fill="#495057">이서연</text>
  <rect x="340" y="368" width="80" height="22" rx="4" fill="#ffc107"/>
  <text x="380" y="383" font-family="Arial" font-size="11" fill="#212529" text-anchor="middle" font-weight="600">관리자</text>
  <text x="460" y="380" font-family="Arial" font-size="13" fill="#495057">8,750원</text>
  <rect x="560" y="368" width="55" height="22" rx="4" fill="#dc3545"/>
  <text x="587" y="383" font-family="Arial" font-size="11" fill="white" text-anchor="middle">2회</text>
  <text x="660" y="380" font-family="Arial" font-size="13" fill="#198754">활동 중</text>
  <text x="780" y="380" font-family="Arial" font-size="12" fill="#6c757d">2025-11-17</text>
  <rect x="910" y="368" width="50" height="24" rx="4" fill="white" stroke="#0d6efd" stroke-width="1"/>
  <text x="935" y="383" font-family="Arial" font-size="11" fill="#0d6efd" text-anchor="middle">상세</text>

  <!-- 테이블 행 3 -->
  <line x1="40" y1="400" x2="980" y2="400" stroke="#dee2e6" stroke-width="1"/>
  <text x="60" y="430" font-family="Arial" font-size="13" fill="#0d6efd">@user789</text>
  <text x="200" y="430" font-family="Arial" font-size="13" fill="#495057">박하준</text>
  <rect x="340" y="418" width="80" height="22" rx="4" fill="#6c757d"/>
  <text x="380" y="433" font-family="Arial" font-size="11" fill="white" text-anchor="middle">사용자</text>
  <text x="460" y="430" font-family="Arial" font-size="13" fill="#495057">22,100원</text>
  <text x="560" y="430" font-family="Arial" font-size="13" fill="#6c757d">없음</text>
  <rect x="660" y="418" width="70" height="22" rx="4" fill="#0dcaf0"/>
  <text x="695" y="433" font-family="Arial" font-size="11" fill="#212529" text-anchor="middle">휴가 중</text>
  <text x="780" y="430" font-family="Arial" font-size="12" fill="#6c757d">2025-11-15</text>
  <rect x="910" y="418" width="50" height="24" rx="4" fill="white" stroke="#0d6efd" stroke-width="1"/>
  <text x="935" y="433" font-family="Arial" font-size="11" fill="#0d6efd" text-anchor="middle">상세</text>

  <!-- 배지 -->
  <rect x="900" y="268" width="70" height="24" rx="12" fill="#6c757d"/>
  <text x="935" y="285" font-family="Arial" font-size="11" fill="white" text-anchor="middle">총 1,247명</text>
</svg>
