<svg width="1200" height="700" xmlns="http://www.w3.org/2000/svg">
  <!-- 배경 -->
  <rect width="1200" height="700" fill="#f8f9fa"/>

  <!-- 왼쪽 사이드바 -->
  <rect width="200" height="700" fill="#2d3748"/>
  <text x="20" y="35" font-family="Arial" font-size="16" fill="white" font-weight="bold">✨ 마녀봇 관리</text>
  <line x1="20" y1="50" x2="180" y2="50" stroke="#4a5568" stroke-width="1"/>

  <!-- 메뉴 - 대시보드 -->
  <rect x="10" y="70" width="180" height="40" rx="6" fill="transparent"/>
  <text x="30" y="95" font-family="Arial" font-size="13" fill="#a0aec0">📊 대시보드</text>

  <!-- 사용자 (활성) -->
  <rect x="10" y="120" width="180" height="40" rx="6" fill="#4299e1"/>
  <text x="30" y="145" font-family="Arial" font-size="13" fill="white" font-weight="600">👥 사용자</text>

  <!-- 활동량 -->
  <rect x="10" y="170" width="180" height="40" rx="6" fill="transparent"/>
  <text x="30" y="195" font-family="Arial" font-size="13" fill="#a0aec0">⚠️ 활동량</text>

  <!-- 휴식 -->
  <rect x="10" y="220" width="180" height="40" rx="6" fill="transparent"/>
  <text x="30" y="245" font-family="Arial" font-size="13" fill="#a0aec0">🏖️ 휴식</text>

  <!-- 이벤트 -->
  <rect x="10" y="270" width="180" height="40" rx="6" fill="transparent"/>
  <text x="30" y="295" font-family="Arial" font-size="13" fill="#a0aec0">🎉 이벤트</text>

  <!-- 상점 -->
  <rect x="10" y="320" width="180" height="40" rx="6" fill="transparent"/>
  <text x="30" y="345" font-family="Arial" font-size="13" fill="#a0aec0">🛒 상점</text>

  <!-- 로그 -->
  <rect x="10" y="370" width="180" height="40" rx="6" fill="transparent"/>
  <text x="30" y="395" font-family="Arial" font-size="13" fill="#a0aec0">📋 로그</text>

  <!-- 설정 -->
  <rect x="10" y="420" width="180" height="40" rx="6" fill="transparent"/>
  <text x="30" y="445" font-family="Arial" font-size="13" fill="#a0aec0">⚙️ 설정</text>

  <!-- 메인 콘텐츠 영역 -->
  <text x="240" y="50" font-family="Arial" font-size="24" fill="#333" font-weight="bold">사용자 관리</text>
  <text x="240" y="75" font-family="Arial" font-size="13" fill="#6c757d">커뮤니티 사용자를 관리하고 조회합니다</text>

  <!-- 검색 필터 카드 -->
  <rect x="240" y="100" width="940" height="80" rx="8" fill="white" filter="drop-shadow(0px 2px 4px rgba(0,0,0,0.1))"/>
  <text x="260" y="125" font-family="Arial" font-size="13" fill="#495057" font-weight="600">검색</text>
  <rect x="260" y="135" width="300" height="35" rx="4" fill="white" stroke="#ced4da" stroke-width="1"/>
  <text x="270" y="158" font-family="Arial" font-size="13" fill="#adb5bd">사용자명 또는 ID 검색</text>

  <text x="590" y="125" font-family="Arial" font-size="13" fill="#495057" font-weight="600">역할</text>
  <rect x="590" y="135" width="150" height="35" rx="4" fill="white" stroke="#ced4da" stroke-width="1"/>
  <text x="600" y="158" font-family="Arial" font-size="13" fill="#495057">전체</text>

  <rect x="1080" y="135" width="80" height="35" rx="4" fill="#0d6efd"/>
  <text x="1120" y="158" font-family="Arial" font-size="13" fill="white" text-anchor="middle" font-weight="500">검색</text>

  <!-- 테이블 -->
  <rect x="240" y="200" width="940" height="460" rx="8" fill="white" filter="drop-shadow(0px 2px 4px rgba(0,0,0,0.1))"/>

  <!-- 테이블 헤더 -->
  <rect x="240" y="200" width="940" height="40" rx="8" fill="#f8f9fa"/>
  <text x="260" y="225" font-family="Arial" font-size="12" fill="#495057" font-weight="600">사용자명</text>
  <text x="400" y="225" font-family="Arial" font-size="12" fill="#495057" font-weight="600">표시명</text>
  <text x="540" y="225" font-family="Arial" font-size="12" fill="#495057" font-weight="600">역할</text>
  <text x="660" y="225" font-family="Arial" font-size="12" fill="#495057" font-weight="600">잔액</text>
  <text x="760" y="225" font-family="Arial" font-size="12" fill="#495057" font-weight="600">경고</text>
  <text x="860" y="225" font-family="Arial" font-size="12" fill="#495057" font-weight="600">휴식 상태</text>
  <text x="980" y="225" font-family="Arial" font-size="12" fill="#495057" font-weight="600">최종 활동</text>
  <text x="1110" y="225" font-family="Arial" font-size="12" fill="#495057" font-weight="600">액션</text>

  <!-- 테이블 행 1 -->
  <line x1="240" y1="240" x2="1180" y2="240" stroke="#dee2e6" stroke-width="1"/>
  <text x="260" y="270" font-family="Arial" font-size="13" fill="#0d6efd">@user123</text>
  <text x="400" y="270" font-family="Arial" font-size="13" fill="#495057">김민준</text>
  <rect x="540" y="258" width="80" height="22" rx="4" fill="#6c757d"/>
  <text x="580" y="273" font-family="Arial" font-size="11" fill="white" text-anchor="middle">사용자</text>
  <text x="660" y="270" font-family="Arial" font-size="13" fill="#495057">15,420원</text>
  <text x="760" y="270" font-family="Arial" font-size="13" fill="#6c757d">없음</text>
  <text x="860" y="270" font-family="Arial" font-size="13" fill="#198754">활동 중</text>
  <text x="980" y="270" font-family="Arial" font-size="12" fill="#6c757d">2025-11-18</text>
  <rect x="1110" y="258" width="50" height="24" rx="4" fill="white" stroke="#0d6efd" stroke-width="1"/>
  <text x="1135" y="273" font-family="Arial" font-size="11" fill="#0d6efd" text-anchor="middle">상세</text>

  <!-- 테이블 행 2 -->
  <line x1="240" y1="290" x2="1180" y2="290" stroke="#dee2e6" stroke-width="1"/>
  <text x="260" y="320" font-family="Arial" font-size="13" fill="#0d6efd">@user456</text>
  <text x="400" y="320" font-family="Arial" font-size="13" fill="#495057">이서연</text>
  <rect x="540" y="308" width="80" height="22" rx="4" fill="#ffc107"/>
  <text x="580" y="323" font-family="Arial" font-size="11" fill="#212529" text-anchor="middle" font-weight="600">관리자</text>
  <text x="660" y="320" font-family="Arial" font-size="13" fill="#495057">8,750원</text>
  <rect x="760" y="308" width="55" height="22" rx="4" fill="#dc3545"/>
  <text x="787" y="323" font-family="Arial" font-size="11" fill="white" text-anchor="middle">2회</text>
  <text x="860" y="320" font-family="Arial" font-size="13" fill="#198754">활동 중</text>
  <text x="980" y="320" font-family="Arial" font-size="12" fill="#6c757d">2025-11-17</text>
  <rect x="1110" y="308" width="50" height="24" rx="4" fill="white" stroke="#0d6efd" stroke-width="1"/>
  <text x="1135" y="323" font-family="Arial" font-size="11" fill="#0d6efd" text-anchor="middle">상세</text>

  <!-- 테이블 행 3 -->
  <line x1="240" y1="340" x2="1180" y2="340" stroke="#dee2e6" stroke-width="1"/>
  <text x="260" y="370" font-family="Arial" font-size="13" fill="#0d6efd">@user789</text>
  <text x="400" y="370" font-family="Arial" font-size="13" fill="#495057">박하준</text>
  <rect x="540" y="358" width="80" height="22" rx="4" fill="#6c757d"/>
  <text x="580" y="373" font-family="Arial" font-size="11" fill="white" text-anchor="middle">사용자</text>
  <text x="660" y="370" font-family="Arial" font-size="13" fill="#495057">22,100원</text>
  <text x="760" y="370" font-family="Arial" font-size="13" fill="#6c757d">없음</text>
  <rect x="860" y="358" width="70" height="22" rx="4" fill="#0dcaf0"/>
  <text x="895" y="373" font-family="Arial" font-size="11" fill="#212529" text-anchor="middle">휴식 중</text>
  <text x="980" y="370" font-family="Arial" font-size="12" fill="#6c757d">2025-11-15</text>
  <rect x="1110" y="358" width="50" height="24" rx="4" fill="white" stroke="#0d6efd" stroke-width="1"/>
  <text x="1135" y="373" font-family="Arial" font-size="11" fill="#0d6efd" text-anchor="middle">상세</text>

  <!-- 배지 -->
  <rect x="1100" y="208" width="60" height="24" rx="12" fill="#6c757d"/>
  <text x="1130" y="225" font-family="Arial" font-size="11" fill="white" text-anchor="middle">총 28명</text>
</svg>
