<svg width="1200" height="900" xmlns="http://www.w3.org/2000/svg">
  <!-- 배경 -->
  <rect width="1200" height="900" fill="#f8f9fa"/>

  <!-- 왼쪽 사이드바 -->
  <rect width="200" height="900" fill="#2d3748"/>
  <text x="20" y="35" font-family="Arial" font-size="16" fill="white" font-weight="bold">✨ 마녀봇 관리</text>
  <line x1="20" y1="50" x2="180" y2="50" stroke="#4a5568" stroke-width="1"/>

  <!-- 메뉴 -->
  <rect x="10" y="70" width="180" height="40" rx="6" fill="transparent"/>
  <text x="30" y="95" font-family="Arial" font-size="13" fill="#a0aec0">📊 대시보드</text>

  <rect x="10" y="120" width="180" height="40" rx="6" fill="#4299e1"/>
  <text x="30" y="145" font-family="Arial" font-size="13" fill="white" font-weight="600">👥 유저 관리</text>

  <rect x="10" y="170" width="180" height="40" rx="6" fill="transparent"/>
  <text x="30" y="195" font-family="Arial" font-size="13" fill="#a0aec0">📅 콘텐츠</text>

  <rect x="10" y="220" width="180" height="40" rx="6" fill="transparent"/>
  <text x="30" y="245" font-family="Arial" font-size="13" fill="#a0aec0">🛒 상점</text>

  <rect x="10" y="270" width="180" height="40" rx="6" fill="transparent"/>
  <text x="30" y="295" font-family="Arial" font-size="13" fill="#a0aec0">📋 로그</text>

  <rect x="10" y="320" width="180" height="40" rx="6" fill="transparent"/>
  <text x="30" y="345" font-family="Arial" font-size="13" fill="#a0aec0">⚙️ 설정</text>

  <!-- 메인 콘텐츠 영역 -->
  <!-- 뒤로가기 버튼 -->
  <rect x="240" y="30" width="80" height="32" rx="4" fill="white" stroke="#ced4da" stroke-width="1"/>
  <text x="280" y="50" font-family="Arial" font-size="13" fill="#495057" text-anchor="middle">← 목록</text>

  <text x="340" y="50" font-family="Arial" font-size="24" fill="#333" font-weight="bold">유저 상세</text>
  <text x="340" y="75" font-family="Arial" font-size="13" fill="#6c757d">재화 내역 및 잔액 조정</text>

  <!-- 유저 정보 카드 -->
  <rect x="240" y="95" width="940" height="100" rx="8" fill="white" filter="drop-shadow(0px 2px 4px rgba(0,0,0,0.1))"/>

  <!-- 프로필 영역 -->
  <circle cx="280" cy="135" r="30" fill="#e9ecef"/>
  <text x="280" y="145" font-family="Arial" font-size="24" fill="#495057" text-anchor="middle">👤</text>

  <text x="330" y="130" font-family="Arial" font-size="18" fill="#333" font-weight="bold">김민준</text>
  <text x="330" y="150" font-family="Arial" font-size="13" fill="#6c757d">@user123</text>
  <rect x="330" y="160" width="60" height="20" rx="4" fill="#6c757d"/>
  <text x="360" y="174" font-family="Arial" font-size="11" fill="white" text-anchor="middle">사용자</text>

  <!-- 재화 정보 -->
  <line x1="520" y1="110" x2="520" y2="180" stroke="#dee2e6" stroke-width="1"/>

  <text x="550" y="130" font-family="Arial" font-size="13" fill="#6c757d">현재 잔액</text>
  <text x="550" y="160" font-family="Arial" font-size="28" fill="#0d6efd" font-weight="bold">15,420</text>
  <text x="675" y="160" font-family="Arial" font-size="16" fill="#6c757d">갈레온</text>

  <text x="740" y="130" font-family="Arial" font-size="13" fill="#6c757d">누적 획득</text>
  <text x="740" y="160" font-family="Arial" font-size="18" fill="#198754" font-weight="600">+42,800</text>

  <text x="920" y="130" font-family="Arial" font-size="13" fill="#6c757d">누적 사용</text>
  <text x="920" y="160" font-family="Arial" font-size="18" fill="#dc3545" font-weight="600">-27,380</text>

  <text x="550" y="185" font-family="Arial" font-size="11" fill="#adb5bd">가입일: 2024-01-15 | 내역 152건</text>

  <!-- 재화 내역 테이블 -->
  <text x="240" y="235" font-family="Arial" font-size="16" fill="#333" font-weight="bold">재화 내역</text>

  <!-- 재화 조정 버튼 -->
  <rect x="1050" y="215" width="130" height="35" rx="4" fill="#0d6efd"/>
  <text x="1115" y="237" font-family="Arial" font-size="13" fill="white" text-anchor="middle" font-weight="600">+ 재화 조정</text>

  <!-- 필터 -->
  <rect x="860" y="215" width="100" height="30" rx="4" fill="white" stroke="#cbd5e1" stroke-width="1"/>
  <text x="870" y="235" font-family="Arial" font-size="11" fill="#64748b">전체 유형 ▼</text>

  <rect x="970" y="215" width="70" height="30" rx="4" fill="white" stroke="#cbd5e1" stroke-width="1"/>
  <text x="980" y="235" font-family="Arial" font-size="11" fill="#64748b">30일 ▼</text>

  <!-- 재화 내역 테이블 -->
  <rect x="240" y="260" width="1100" height="620" rx="8" fill="white" filter="drop-shadow(0px 2px 4px rgba(0,0,0,0.1))"/>

  <!-- 테이블 헤더 -->
  <rect x="240" y="260" width="1100" height="40" rx="8" fill="#f1f5f9"/>
  <text x="270" y="285" font-family="Arial" font-size="12" fill="#475569" font-weight="bold">일시</text>
  <text x="410" y="285" font-family="Arial" font-size="12" fill="#475569" font-weight="bold">내용</text>
  <text x="700" y="285" font-family="Arial" font-size="12" fill="#475569" font-weight="bold" text-anchor="end">차감</text>
  <text x="820" y="285" font-family="Arial" font-size="12" fill="#475569" font-weight="bold" text-anchor="end">지급</text>
  <text x="950" y="285" font-family="Arial" font-size="12" fill="#475569" font-weight="bold" text-anchor="end">잔액</text>
  <text x="1080" y="285" font-family="Arial" font-size="12" fill="#475569" font-weight="bold">작업</text>

  <!-- 세로 구분선 -->
  <line x1="400" y1="300" x2="400" y2="870" stroke="#e2e8f0" stroke-width="1"/>
  <line x1="710" y1="300" x2="710" y2="870" stroke="#e2e8f0" stroke-width="1"/>
  <line x1="830" y1="300" x2="830" y2="870" stroke="#e2e8f0" stroke-width="1"/>
  <line x1="960" y1="300" x2="960" y2="870" stroke="#e2e8f0" stroke-width="1"/>

  <!-- 거래 내역 행 1 -->
  <line x1="250" y1="300" x2="1330" y2="300" stroke="#e2e8f0" stroke-width="1"/>
  <text x="270" y="320" font-family="Arial" font-size="11" fill="#1e293b" font-weight="600">2025-11-18</text>
  <text x="270" y="335" font-family="Arial" font-size="10" fill="#64748b">14:30</text>

  <text x="410" y="320" font-family="Arial" font-size="11" fill="#1e293b">출석 이벤트 참여</text>
  <text x="410" y="335" font-family="Arial" font-size="10" fill="#64748b">[이벤트 보상] #1523</text>

  <text x="700" y="327" font-family="Arial" font-size="12" fill="#94a3b8" text-anchor="end">-</text>
  <text x="820" y="327" font-family="Arial" font-size="13" fill="#16a34a" text-anchor="end" font-weight="600">1,000</text>
  <text x="950" y="327" font-family="Arial" font-size="13" fill="#1e293b" text-anchor="end" font-weight="600">15,420</text>

  <!-- 작업 버튼 -->
  <rect x="970" y="312" width="45" height="22" rx="4" fill="white" stroke="#0d6efd" stroke-width="1"/>
  <text x="992" y="327" font-family="Arial" font-size="10" fill="#0d6efd" text-anchor="middle">수정</text>
  <rect x="1020" y="312" width="45" height="22" rx="4" fill="white" stroke="#dc3545" stroke-width="1"/>
  <text x="1042" y="327" font-family="Arial" font-size="10" fill="#dc3545" text-anchor="middle">삭제</text>

  <!-- 거래 내역 행 2 -->
  <line x1="250" y1="350" x2="1330" y2="350" stroke="#e2e8f0" stroke-width="1"/>
  <text x="270" y="370" font-family="Arial" font-size="11" fill="#1e293b" font-weight="600">2025-11-17</text>
  <text x="270" y="385" font-family="Arial" font-size="10" fill="#64748b">22:15</text>

  <text x="410" y="370" font-family="Arial" font-size="11" fill="#1e293b">마법 지팡이 구매</text>
  <text x="410" y="385" font-family="Arial" font-size="10" fill="#64748b">[상점 구매] #1522</text>

  <text x="700" y="377" font-family="Arial" font-size="13" fill="#dc2626" text-anchor="end" font-weight="600">2,500</text>
  <text x="820" y="377" font-family="Arial" font-size="12" fill="#94a3b8" text-anchor="end">-</text>
  <text x="950" y="377" font-family="Arial" font-size="13" fill="#1e293b" text-anchor="end" font-weight="600">14,420</text>

  <rect x="970" y="362" width="45" height="22" rx="4" fill="white" stroke="#0d6efd" stroke-width="1"/>
  <text x="992" y="377" font-family="Arial" font-size="10" fill="#0d6efd" text-anchor="middle">수정</text>
  <rect x="1020" y="362" width="45" height="22" rx="4" fill="white" stroke="#dc3545" stroke-width="1"/>
  <text x="1042" y="377" font-family="Arial" font-size="10" fill="#dc3545" text-anchor="middle">삭제</text>

  <!-- 거래 내역 행 3 -->
  <line x1="250" y1="400" x2="1330" y2="400" stroke="#e2e8f0" stroke-width="1"/>
  <text x="270" y="420" font-family="Arial" font-size="11" fill="#1e293b" font-weight="600">2025-11-17</text>
  <text x="270" y="435" font-family="Arial" font-size="10" fill="#64748b">16:00</text>

  <text x="410" y="420" font-family="Arial" font-size="11" fill="#1e293b">답글 420개 (100개당 10갈레온)</text>
  <text x="410" y="435" font-family="Arial" font-size="10" fill="#64748b">[활동량 정산] #1521</text>

  <text x="700" y="427" font-family="Arial" font-size="12" fill="#94a3b8" text-anchor="end">-</text>
  <text x="820" y="427" font-family="Arial" font-size="13" fill="#16a34a" text-anchor="end" font-weight="600">420</text>
  <text x="950" y="427" font-family="Arial" font-size="13" fill="#1e293b" text-anchor="end" font-weight="600">16,920</text>

  <rect x="970" y="412" width="45" height="22" rx="4" fill="white" stroke="#0d6efd" stroke-width="1"/>
  <text x="992" y="427" font-family="Arial" font-size="10" fill="#0d6efd" text-anchor="middle">수정</text>
  <rect x="1020" y="412" width="45" height="22" rx="4" fill="white" stroke="#dc3545" stroke-width="1"/>
  <text x="1042" y="427" font-family="Arial" font-size="10" fill="#dc3545" text-anchor="middle">삭제</text>

  <!-- 거래 내역 행 4 -->
  <line x1="250" y1="450" x2="1330" y2="450" stroke="#e2e8f0" stroke-width="1"/>
  <text x="270" y="470" font-family="Arial" font-size="11" fill="#1e293b" font-weight="600">2025-11-16</text>
  <text x="270" y="485" font-family="Arial" font-size="10" fill="#64748b">15:45</text>

  <text x="410" y="470" font-family="Arial" font-size="11" fill="#1e293b">중복 지급 오류 수정 (#1518 취소)</text>
  <text x="410" y="485" font-family="Arial" font-size="10" fill="#64748b">[오류 수정] #1520</text>

  <text x="700" y="477" font-family="Arial" font-size="13" fill="#dc2626" text-anchor="end" font-weight="600">1,000</text>
  <text x="820" y="477" font-family="Arial" font-size="12" fill="#94a3b8" text-anchor="end">-</text>
  <text x="950" y="477" font-family="Arial" font-size="13" fill="#1e293b" text-anchor="end" font-weight="600">16,500</text>

  <rect x="970" y="462" width="45" height="22" rx="4" fill="white" stroke="#0d6efd" stroke-width="1"/>
  <text x="992" y="477" font-family="Arial" font-size="10" fill="#0d6efd" text-anchor="middle">수정</text>
  <rect x="1020" y="462" width="45" height="22" rx="4" fill="white" stroke="#dc3545" stroke-width="1"/>
  <text x="1042" y="477" font-family="Arial" font-size="10" fill="#dc3545" text-anchor="middle">삭제</text>

  <!-- 거래 내역 행 5 -->
  <line x1="250" y1="500" x2="1330" y2="500" stroke="#e2e8f0" stroke-width="1"/>
  <text x="270" y="520" font-family="Arial" font-size="11" fill="#1e293b" font-weight="600">2025-11-16</text>
  <text x="270" y="535" font-family="Arial" font-size="10" fill="#64748b">10:20</text>

  <text x="410" y="520" font-family="Arial" font-size="11" fill="#1e293b">답글 380개 (100개당 10갈레온)</text>
  <text x="410" y="535" font-family="Arial" font-size="10" fill="#64748b">[활동량 정산] #1519</text>

  <text x="700" y="527" font-family="Arial" font-size="12" fill="#94a3b8" text-anchor="end">-</text>
  <text x="820" y="527" font-family="Arial" font-size="13" fill="#16a34a" text-anchor="end" font-weight="600">380</text>
  <text x="950" y="527" font-family="Arial" font-size="13" fill="#1e293b" text-anchor="end" font-weight="600">17,500</text>

  <rect x="970" y="512" width="45" height="22" rx="4" fill="white" stroke="#0d6efd" stroke-width="1"/>
  <text x="992" y="527" font-family="Arial" font-size="10" fill="#0d6efd" text-anchor="middle">수정</text>
  <rect x="1020" y="512" width="45" height="22" rx="4" fill="white" stroke="#dc3545" stroke-width="1"/>
  <text x="1042" y="527" font-family="Arial" font-size="10" fill="#dc3545" text-anchor="middle">삭제</text>

  <!-- 거래 내역 행 6 -->
  <line x1="250" y1="550" x2="1330" y2="550" stroke="#e2e8f0" stroke-width="1"/>
  <text x="270" y="570" font-family="Arial" font-size="11" fill="#1e293b" font-weight="600">2025-11-15</text>
  <text x="270" y="585" font-family="Arial" font-size="10" fill="#64748b">18:30</text>

  <text x="410" y="570" font-family="Arial" font-size="11" fill="#1e293b">퀴즈 이벤트 정답</text>
  <text x="410" y="585" font-family="Arial" font-size="10" fill="#64748b">[이벤트 보상] #1518</text>

  <text x="700" y="577" font-family="Arial" font-size="12" fill="#94a3b8" text-anchor="end">-</text>
  <text x="820" y="577" font-family="Arial" font-size="13" fill="#16a34a" text-anchor="end" font-weight="600">1,000</text>
  <text x="950" y="577" font-family="Arial" font-size="13" fill="#1e293b" text-anchor="end" font-weight="600">17,120</text>

  <rect x="970" y="562" width="45" height="22" rx="4" fill="white" stroke="#0d6efd" stroke-width="1"/>
  <text x="992" y="577" font-family="Arial" font-size="10" fill="#0d6efd" text-anchor="middle">수정</text>
  <rect x="1020" y="562" width="45" height="22" rx="4" fill="white" stroke="#dc3545" stroke-width="1"/>
  <text x="1042" y="577" font-family="Arial" font-size="10" fill="#dc3545" text-anchor="middle">삭제</text>

  <!-- 거래 내역 행 7 -->
  <line x1="250" y1="600" x2="1330" y2="600" stroke="#e2e8f0" stroke-width="1"/>
  <text x="270" y="620" font-family="Arial" font-size="11" fill="#1e293b" font-weight="600">2025-11-14</text>
  <text x="270" y="635" font-family="Arial" font-size="10" fill="#64748b">20:00</text>

  <text x="410" y="620" font-family="Arial" font-size="11" fill="#1e293b">마법 물약 세트 구매</text>
  <text x="410" y="635" font-family="Arial" font-size="10" fill="#64748b">[상점 구매] #1517</text>

  <text x="700" y="627" font-family="Arial" font-size="13" fill="#dc2626" text-anchor="end" font-weight="600">3,200</text>
  <text x="820" y="627" font-family="Arial" font-size="12" fill="#94a3b8" text-anchor="end">-</text>
  <text x="950" y="627" font-family="Arial" font-size="13" fill="#1e293b" text-anchor="end" font-weight="600">16,120</text>

  <rect x="970" y="612" width="45" height="22" rx="4" fill="white" stroke="#0d6efd" stroke-width="1"/>
  <text x="992" y="627" font-family="Arial" font-size="10" fill="#0d6efd" text-anchor="middle">수정</text>
  <rect x="1020" y="612" width="45" height="22" rx="4" fill="white" stroke="#dc3545" stroke-width="1"/>
  <text x="1042" y="627" font-family="Arial" font-size="10" fill="#dc3545" text-anchor="middle">삭제</text>

  <!-- 거래 내역 행 8 -->
  <line x1="250" y1="650" x2="1330" y2="650" stroke="#e2e8f0" stroke-width="1"/>
  <text x="270" y="670" font-family="Arial" font-size="11" fill="#1e293b" font-weight="600">2025-11-14</text>
  <text x="270" y="685" font-family="Arial" font-size="10" fill="#64748b">15:30</text>

  <text x="410" y="670" font-family="Arial" font-size="11" fill="#1e293b">답글 450개 (100개당 10갈레온)</text>
  <text x="410" y="685" font-family="Arial" font-size="10" fill="#64748b">[활동량 정산] #1516</text>

  <text x="700" y="677" font-family="Arial" font-size="12" fill="#94a3b8" text-anchor="end">-</text>
  <text x="820" y="677" font-family="Arial" font-size="13" fill="#16a34a" text-anchor="end" font-weight="600">450</text>
  <text x="950" y="677" font-family="Arial" font-size="13" fill="#1e293b" text-anchor="end" font-weight="600">19,320</text>

  <rect x="970" y="662" width="45" height="22" rx="4" fill="white" stroke="#0d6efd" stroke-width="1"/>
  <text x="992" y="677" font-family="Arial" font-size="10" fill="#0d6efd" text-anchor="middle">수정</text>
  <rect x="1020" y="662" width="45" height="22" rx="4" fill="white" stroke="#dc3545" stroke-width="1"/>
  <text x="1042" y="677" font-family="Arial" font-size="10" fill="#dc3545" text-anchor="middle">삭제</text>

  <!-- 거래 내역 행 9 -->
  <line x1="250" y1="700" x2="1330" y2="700" stroke="#e2e8f0" stroke-width="1"/>
  <text x="270" y="720" font-family="Arial" font-size="11" fill="#1e293b" font-weight="600">2025-11-13</text>
  <text x="270" y="735" font-family="Arial" font-size="10" fill="#64748b">19:15</text>

  <text x="410" y="720" font-family="Arial" font-size="11" fill="#1e293b">월간 우수 활동자 시상</text>
  <text x="410" y="735" font-family="Arial" font-size="10" fill="#64748b">[이벤트 보상] #1515</text>

  <text x="700" y="727" font-family="Arial" font-size="12" fill="#94a3b8" text-anchor="end">-</text>
  <text x="820" y="727" font-family="Arial" font-size="13" fill="#16a34a" text-anchor="end" font-weight="600">5,000</text>
  <text x="950" y="727" font-family="Arial" font-size="13" fill="#1e293b" text-anchor="end" font-weight="600">18,870</text>

  <rect x="970" y="712" width="45" height="22" rx="4" fill="white" stroke="#0d6efd" stroke-width="1"/>
  <text x="992" y="727" font-family="Arial" font-size="10" fill="#0d6efd" text-anchor="middle">수정</text>
  <rect x="1020" y="712" width="45" height="22" rx="4" fill="white" stroke="#dc3545" stroke-width="1"/>
  <text x="1042" y="727" font-family="Arial" font-size="10" fill="#dc3545" text-anchor="middle">삭제</text>

  <!-- 거래 내역 행 10 -->
  <line x1="250" y1="750" x2="1330" y2="750" stroke="#e2e8f0" stroke-width="1"/>
  <text x="270" y="770" font-family="Arial" font-size="11" fill="#1e293b" font-weight="600">2025-11-13</text>
  <text x="270" y="785" font-family="Arial" font-size="10" fill="#64748b">10:45</text>

  <text x="410" y="770" font-family="Arial" font-size="11" fill="#1e293b">답글 370개 (100개당 10갈레온)</text>
  <text x="410" y="785" font-family="Arial" font-size="10" fill="#64748b">[활동량 정산] #1514</text>

  <text x="700" y="777" font-family="Arial" font-size="12" fill="#94a3b8" text-anchor="end">-</text>
  <text x="820" y="777" font-family="Arial" font-size="13" fill="#16a34a" text-anchor="end" font-weight="600">370</text>
  <text x="950" y="777" font-family="Arial" font-size="13" fill="#1e293b" text-anchor="end" font-weight="600">13,870</text>

  <rect x="970" y="762" width="45" height="22" rx="4" fill="white" stroke="#0d6efd" stroke-width="1"/>
  <text x="992" y="777" font-family="Arial" font-size="10" fill="#0d6efd" text-anchor="middle">수정</text>
  <rect x="1020" y="762" width="45" height="22" rx="4" fill="white" stroke="#dc3545" stroke-width="1"/>
  <text x="1042" y="777" font-family="Arial" font-size="10" fill="#dc3545" text-anchor="middle">삭제</text>

  <!-- 하단 구분선 -->
  <line x1="240" y1="800" x2="1340" y2="800" stroke="#cbd5e1" stroke-width="2"/>

  <!-- 통장 요약 정보 -->
  <rect x="240" y="805" width="1100" height="75" fill="#f8fafc"/>

  <text x="270" y="835" font-family="Arial" font-size="12" fill="#475569">이번 페이지 합계</text>
  <text x="700" y="835" font-family="Arial" font-size="13" fill="#dc2626" text-anchor="end" font-weight="600">6,700</text>
  <text x="820" y="835" font-family="Arial" font-size="13" fill="#16a34a" text-anchor="end" font-weight="600">8,620</text>

  <text x="270" y="860" font-family="Arial" font-size="11" fill="#64748b">총 152건 | 1-10 페이지</text>

  <!-- 페이지네이션 -->
  <rect x="1050" y="845" width="30" height="28" rx="4" fill="#0d6efd"/>
  <text x="1065" y="865" font-family="Arial" font-size="12" fill="white" text-anchor="middle" font-weight="600">1</text>
  <rect x="1085" y="845" width="30" height="28" rx="4" fill="white" stroke="#cbd5e1" stroke-width="1"/>
  <text x="1100" y="865" font-family="Arial" font-size="12" fill="#475569" text-anchor="middle">2</text>
  <rect x="1120" y="845" width="30" height="28" rx="4" fill="white" stroke="#cbd5e1" stroke-width="1"/>
  <text x="1135" y="865" font-family="Arial" font-size="12" fill="#475569" text-anchor="middle">3</text>
  <rect x="1155" y="845" width="20" height="28" rx="4" fill="white" stroke="#cbd5e1" stroke-width="1"/>
  <text x="1165" y="865" font-family="Arial" font-size="12" fill="#475569" text-anchor="middle">→</text>
</svg>
