<svg width="1000" height="750" xmlns="http://www.w3.org/2000/svg">
  <!-- 배경 -->
  <rect width="1000" height="750" fill="#f8f9fa"/>

  <!-- 네비게이션 바 -->
  <rect width="1000" height="60" fill="#212529"/>
  <text x="20" y="38" font-family="Arial" font-size="18" fill="white" font-weight="bold">✨ 마녀봇 관리</text>
  <text x="200" y="38" font-family="Arial" font-size="14" fill="#6c757d">대시보드</text>
  <text x="300" y="38" font-family="Arial" font-size="14" fill="#6c757d">사용자</text>
  <text x="400" y="38" font-family="Arial" font-size="14" fill="#adb5bd">휴식</text>

  <!-- 제목 -->
  <text x="40" y="110" font-family="Arial" font-size="24" fill="#333" font-weight="bold">휴식 관리</text>
  <text x="40" y="135" font-family="Arial" font-size="13" fill="#6c757d">사용자 휴식을 조회하고 관리합니다</text>

  <!-- 통계 카드들 -->
  <rect x="40" y="160" width="220" height="100" rx="8" fill="white" filter="drop-shadow(0px 2px 4px rgba(0,0,0,0.1))"/>
  <text x="60" y="190" font-family="Arial" font-size="13" fill="#6c757d">총 휴식 기간</text>
  <text x="60" y="225" font-family="Arial" font-size="32" fill="#333" font-weight="bold">6</text>
  <text x="190" y="235" font-family="Arial" font-size="36" fill="#0dcaf0">🏖️</text>

  <rect x="280" y="160" width="220" height="100" rx="8" fill="white" filter="drop-shadow(0px 2px 4px rgba(0,0,0,0.1))"/>
  <text x="300" y="190" font-family="Arial" font-size="13" fill="#6c757d">현재 휴식 중</text>
  <text x="300" y="225" font-family="Arial" font-size="32" fill="#333" font-weight="bold">2</text>
  <text x="450" y="235" font-family="Arial" font-size="36" fill="#198754">✓</text>

  <rect x="520" y="160" width="220" height="100" rx="8" fill="white" filter="drop-shadow(0px 2px 4px rgba(0,0,0,0.1))"/>
  <text x="540" y="190" font-family="Arial" font-size="13" fill="#6c757d">이번 달 휴식</text>
  <text x="540" y="225" font-family="Arial" font-size="32" fill="#333" font-weight="bold">3</text>
  <text x="690" y="235" font-family="Arial" font-size="36" fill="#ffc107">📅</text>

  <rect x="760" y="160" width="220" height="100" rx="8" fill="white" filter="drop-shadow(0px 2px 4px rgba(0,0,0,0.1))"/>
  <text x="780" y="190" font-family="Arial" font-size="13" fill="#6c757d">종료된 휴식</text>
  <text x="780" y="225" font-family="Arial" font-size="32" fill="#333" font-weight="bold">4</text>
  <text x="930" y="235" font-family="Arial" font-size="36" fill="#6c757d">⏸️</text>

  <!-- 필터 영역 -->
  <rect x="40" y="280" width="940" height="80" rx="8" fill="#e9ecef"/>
  <text x="60" y="305" font-family="Arial" font-size="13" fill="#495057" font-weight="600">사용자 필터</text>
  <rect x="60" y="315" width="200" height="35" rx="4" fill="white" stroke="#ced4da" stroke-width="1"/>
  <text x="70" y="338" font-family="Arial" font-size="13" fill="#495057">전체</text>

  <text x="290" y="305" font-family="Arial" font-size="13" fill="#495057" font-weight="600">상태 필터</text>
  <rect x="290" y="315" width="150" height="35" rx="4" fill="white" stroke="#ced4da" stroke-width="1"/>
  <text x="300" y="338" font-family="Arial" font-size="13" fill="#495057">전체</text>

  <rect x="470" y="315" width="100" height="35" rx="4" fill="#0d6efd"/>
  <text x="520" y="338" font-family="Arial" font-size="13" fill="white" text-anchor="middle">검색</text>

  <!-- 휴식 목록 테이블 -->
  <rect x="40" y="380" width="940" height="40" rx="8" fill="#f8f9fa"/>
  <text x="60" y="405" font-family="Arial" font-size="12" fill="#495057" font-weight="600">사용자</text>
  <text x="180" y="405" font-family="Arial" font-size="12" fill="#495057" font-weight="600">시작일</text>
  <text x="300" y="405" font-family="Arial" font-size="12" fill="#495057" font-weight="600">종료일</text>
  <text x="420" y="405" font-family="Arial" font-size="12" fill="#495057" font-weight="600">기간</text>
  <text x="510" y="405" font-family="Arial" font-size="12" fill="#495057" font-weight="600">사유</text>
  <text x="750" y="405" font-family="Arial" font-size="12" fill="#495057" font-weight="600">승인자</text>
  <text x="870" y="405" font-family="Arial" font-size="12" fill="#495057" font-weight="600">상태</text>

  <!-- 휴식 목록 행 1 (진행 중) -->
  <line x1="40" y1="420" x2="980" y2="420" stroke="#dee2e6" stroke-width="1"/>
  <text x="60" y="450" font-family="Arial" font-size="13" fill="#0d6efd">@user789</text>
  <text x="180" y="450" font-family="Arial" font-size="13" fill="#495057">2025-11-18</text>
  <text x="300" y="450" font-family="Arial" font-size="13" fill="#495057">2025-11-25</text>
  <text x="420" y="450" font-family="Arial" font-size="13" fill="#6c757d">7일</text>
  <text x="510" y="450" font-family="Arial" font-size="13" fill="#6c757d">개인 사정</text>
  <text x="750" y="450" font-family="Arial" font-size="13" fill="#6c757d">총괄관리자</text>
  <rect x="870" y="435" width="70" height="24" rx="4" fill="#198754"/>
  <text x="905" y="452" font-family="Arial" font-size="11" fill="white" text-anchor="middle">진행 중</text>

  <!-- 휴식 목록 행 2 (진행 중) -->
  <line x1="40" y1="470" x2="980" y2="470" stroke="#dee2e6" stroke-width="1"/>
  <text x="60" y="500" font-family="Arial" font-size="13" fill="#0d6efd">@user234</text>
  <text x="180" y="500" font-family="Arial" font-size="13" fill="#495057">2025-11-15</text>
  <text x="300" y="500" font-family="Arial" font-size="13" fill="#495057">2025-11-29</text>
  <text x="420" y="500" font-family="Arial" font-size="13" fill="#6c757d">14일</text>
  <text x="510" y="500" font-family="Arial" font-size="13" fill="#6c757d">건강상 이유</text>
  <text x="750" y="500" font-family="Arial" font-size="13" fill="#6c757d">운영진A</text>
  <rect x="870" y="485" width="70" height="24" rx="4" fill="#198754"/>
  <text x="905" y="502" font-family="Arial" font-size="11" fill="white" text-anchor="middle">진행 중</text>

  <!-- 휴식 목록 행 3 (종료) -->
  <line x1="40" y1="520" x2="980" y2="520" stroke="#dee2e6" stroke-width="1"/>
  <text x="60" y="550" font-family="Arial" font-size="13" fill="#0d6efd">@user567</text>
  <text x="180" y="550" font-family="Arial" font-size="13" fill="#495057">2025-10-20</text>
  <text x="300" y="550" font-family="Arial" font-size="13" fill="#495057">2025-10-27</text>
  <text x="420" y="550" font-family="Arial" font-size="13" fill="#6c757d">7일</text>
  <text x="510" y="550" font-family="Arial" font-size="13" fill="#6c757d">학업 집중</text>
  <text x="750" y="550" font-family="Arial" font-size="13" fill="#6c757d">마녀봇</text>
  <rect x="870" y="535" width="70" height="24" rx="4" fill="#6c757d"/>
  <text x="905" y="552" font-family="Arial" font-size="11" fill="white" text-anchor="middle">종료</text>

  <!-- 휴식 목록 행 4 (종료) -->
  <line x1="40" y1="570" x2="980" y2="570" stroke="#dee2e6" stroke-width="1"/>
  <text x="60" y="600" font-family="Arial" font-size="13" fill="#0d6efd">@user890</text>
  <text x="180" y="600" font-family="Arial" font-size="13" fill="#495057">2025-09-15</text>
  <text x="300" y="600" font-family="Arial" font-size="13" fill="#495057">2025-09-22</text>
  <text x="420" y="600" font-family="Arial" font-size="13" fill="#6c757d">7일</text>
  <text x="510" y="600" font-family="Arial" font-size="13" fill="#6c757d">가족 행사</text>
  <text x="750" y="600" font-family="Arial" font-size="13" fill="#6c757d">총괄관리자</text>
  <rect x="870" y="585" width="70" height="24" rx="4" fill="#6c757d"/>
  <text x="905" y="602" font-family="Arial" font-size="11" fill="white" text-anchor="middle">종료</text>

  <!-- 휴식 목록 행 5 (종료) -->
  <line x1="40" y1="620" x2="980" y2="620" stroke="#dee2e6" stroke-width="1"/>
  <text x="60" y="650" font-family="Arial" font-size="13" fill="#0d6efd">@user123</text>
  <text x="180" y="650" font-family="Arial" font-size="13" fill="#495057">2025-08-10</text>
  <text x="300" y="650" font-family="Arial" font-size="13" fill="#495057">2025-08-17</text>
  <text x="420" y="650" font-family="Arial" font-size="13" fill="#6c757d">7일</text>
  <text x="510" y="650" font-family="Arial" font-size="13" fill="#6c757d">휴가</text>
  <text x="750" y="650" font-family="Arial" font-size="13" fill="#6c757d">운영진B</text>
  <rect x="870" y="635" width="70" height="24" rx="4" fill="#6c757d"/>
  <text x="905" y="652" font-family="Arial" font-size="11" fill="white" text-anchor="middle">종료</text>

  <!-- 페이지네이션 -->
  <rect x="380" y="690" width="240" height="40" rx="6" fill="white" filter="drop-shadow(0px 1px 3px rgba(0,0,0,0.1))"/>
  <rect x="390" y="700" width="70" height="24" rx="4" fill="#6c757d"/>
  <text x="425" y="717" font-family="Arial" font-size="12" fill="white" text-anchor="middle">이전</text>

  <rect x="475" y="700" width="30" height="24" rx="4" fill="#0d6efd"/>
  <text x="490" y="717" font-family="Arial" font-size="12" fill="white" text-anchor="middle" font-weight="bold">1</text>

  <rect x="520" y="700" width="70" height="24" rx="4" fill="#e9ecef"/>
  <text x="555" y="717" font-family="Arial" font-size="12" fill="#6c757d" text-anchor="middle">다음</text>
</svg>
