<svg width="1000" height="700" xmlns="http://www.w3.org/2000/svg">
  <!-- 배경 -->
  <rect width="1000" height="700" fill="#f8f9fa"/>

  <!-- 네비게이션 바 -->
  <rect width="1000" height="60" fill="#212529"/>
  <text x="20" y="38" font-family="Arial" font-size="18" fill="white" font-weight="bold">✨ 마녀봇 관리</text>
  <text x="200" y="38" font-family="Arial" font-size="14" fill="#6c757d">대시보드</text>
  <text x="300" y="38" font-family="Arial" font-size="14" fill="#6c757d">사용자</text>
  <text x="400" y="38" font-family="Arial" font-size="14" fill="#adb5bd">경고</text>

  <!-- 제목 -->
  <text x="40" y="110" font-family="Arial" font-size="24" fill="#333" font-weight="bold">경고 관리</text>
  <text x="40" y="135" font-family="Arial" font-size="13" fill="#6c757d">사용자 경고를 조회하고 관리합니다</text>

  <!-- 통계 카드들 -->
  <rect x="40" y="160" width="220" height="100" rx="8" fill="white" filter="drop-shadow(0px 2px 4px rgba(0,0,0,0.1))"/>
  <text x="60" y="190" font-family="Arial" font-size="13" fill="#6c757d">전체 경고</text>
  <text x="60" y="225" font-family="Arial" font-size="32" fill="#333" font-weight="bold">8</text>
  <text x="190" y="235" font-family="Arial" font-size="36" fill="#ffc107">⚠️</text>

  <rect x="280" y="160" width="220" height="100" rx="8" fill="white" filter="drop-shadow(0px 2px 4px rgba(0,0,0,0.1))"/>
  <text x="300" y="190" font-family="Arial" font-size="13" fill="#6c757d">이번 달</text>
  <text x="300" y="225" font-family="Arial" font-size="32" fill="#333" font-weight="bold">3</text>
  <text x="450" y="235" font-family="Arial" font-size="36" fill="#0d6efd">📅</text>

  <rect x="520" y="160" width="220" height="100" rx="8" fill="white" filter="drop-shadow(0px 2px 4px rgba(0,0,0,0.1))"/>
  <text x="540" y="190" font-family="Arial" font-size="13" fill="#6c757d">이번 주</text>
  <text x="540" y="225" font-family="Arial" font-size="32" fill="#333" font-weight="bold">1</text>
  <text x="690" y="235" font-family="Arial" font-size="36" fill="#dc3545">🔔</text>

  <rect x="760" y="160" width="220" height="100" rx="8" fill="white" filter="drop-shadow(0px 2px 4px rgba(0,0,0,0.1))"/>
  <text x="780" y="190" font-family="Arial" font-size="13" fill="#6c757d">경고 대상자</text>
  <text x="780" y="225" font-family="Arial" font-size="32" fill="#333" font-weight="bold">5</text>
  <text x="930" y="235" font-family="Arial" font-size="36" fill="#6c757d">👤</text>

  <!-- 필터 영역 -->
  <rect x="40" y="280" width="940" height="80" rx="8" fill="#e9ecef"/>
  <text x="60" y="305" font-family="Arial" font-size="13" fill="#495057" font-weight="600">사용자 필터</text>
  <rect x="60" y="315" width="200" height="35" rx="4" fill="white" stroke="#ced4da" stroke-width="1"/>
  <text x="70" y="338" font-family="Arial" font-size="13" fill="#495057">전체</text>

  <text x="290" y="305" font-family="Arial" font-size="13" fill="#495057" font-weight="600">기간 필터</text>
  <rect x="290" y="315" width="150" height="35" rx="4" fill="white" stroke="#ced4da" stroke-width="1"/>
  <text x="300" y="338" font-family="Arial" font-size="13" fill="#495057">전체 기간</text>

  <rect x="470" y="315" width="100" height="35" rx="4" fill="#0d6efd"/>
  <text x="520" y="338" font-family="Arial" font-size="13" fill="white" text-anchor="middle">검색</text>

  <!-- 경고 목록 테이블 -->
  <rect x="40" y="380" width="940" height="40" rx="8" fill="#f8f9fa"/>
  <text x="60" y="405" font-family="Arial" font-size="12" fill="#495057" font-weight="600">발급일시</text>
  <text x="200" y="405" font-family="Arial" font-size="12" fill="#495057" font-weight="600">사용자</text>
  <text x="340" y="405" font-family="Arial" font-size="12" fill="#495057" font-weight="600">사유</text>
  <text x="680" y="405" font-family="Arial" font-size="12" fill="#495057" font-weight="600">발급자</text>
  <text x="840" y="405" font-family="Arial" font-size="12" fill="#495057" font-weight="600">액션</text>

  <!-- 경고 목록 행 1 -->
  <line x1="40" y1="420" x2="980" y2="420" stroke="#dee2e6" stroke-width="1"/>
  <text x="60" y="450" font-family="Arial" font-size="13" fill="#6c757d">2025-11-20 10:15</text>
  <text x="200" y="450" font-family="Arial" font-size="13" fill="#0d6efd">@user456</text>
  <text x="340" y="450" font-family="Arial" font-size="13" fill="#495057">활동량 부족 (48시간 답글 8개)</text>
  <text x="680" y="450" font-family="Arial" font-size="13" fill="#6c757d">마녀봇</text>
  <rect x="840" y="435" width="50" height="24" rx="4" fill="#dc3545"/>
  <text x="865" y="452" font-family="Arial" font-size="11" fill="white" text-anchor="middle">삭제</text>

  <!-- 경고 목록 행 2 -->
  <line x1="40" y1="470" x2="980" y2="470" stroke="#dee2e6" stroke-width="1"/>
  <text x="60" y="500" font-family="Arial" font-size="13" fill="#6c757d">2025-11-19 15:30</text>
  <text x="200" y="500" font-family="Arial" font-size="13" fill="#0d6efd">@user789</text>
  <text x="340" y="500" font-family="Arial" font-size="13" fill="#495057">활동량 부족 (48시간 답글 5개)</text>
  <text x="680" y="500" font-family="Arial" font-size="13" fill="#6c757d">마녀봇</text>
  <rect x="840" y="485" width="50" height="24" rx="4" fill="#dc3545"/>
  <text x="865" y="502" font-family="Arial" font-size="11" fill="white" text-anchor="middle">삭제</text>

  <!-- 경고 목록 행 3 -->
  <line x1="40" y1="520" x2="980" y2="520" stroke="#dee2e6" stroke-width="1"/>
  <text x="60" y="550" font-family="Arial" font-size="13" fill="#6c757d">2025-11-18 08:45</text>
  <text x="200" y="550" font-family="Arial" font-size="13" fill="#0d6efd">@user234</text>
  <text x="340" y="550" font-family="Arial" font-size="13" fill="#495057">부적절한 언행으로 인한 수동 경고</text>
  <text x="680" y="550" font-family="Arial" font-size="13" fill="#6c757d">운영진A</text>
  <rect x="840" y="535" width="50" height="24" rx="4" fill="#dc3545"/>
  <text x="865" y="552" font-family="Arial" font-size="11" fill="white" text-anchor="middle">삭제</text>

  <!-- 경고 목록 행 4 -->
  <line x1="40" y1="570" x2="980" y2="570" stroke="#dee2e6" stroke-width="1"/>
  <text x="60" y="600" font-family="Arial" font-size="13" fill="#6c757d">2025-11-17 16:20</text>
  <text x="200" y="600" font-family="Arial" font-size="13" fill="#0d6efd">@user567</text>
  <text x="340" y="600" font-family="Arial" font-size="13" fill="#495057">활동량 부족 (48시간 답글 12개)</text>
  <text x="680" y="600" font-family="Arial" font-size="13" fill="#6c757d">마녀봇</text>
  <rect x="840" y="585" width="50" height="24" rx="4" fill="#dc3545"/>
  <text x="865" y="602" font-family="Arial" font-size="11" fill="white" text-anchor="middle">삭제</text>

  <!-- 페이지네이션 -->
  <rect x="380" y="640" width="240" height="40" rx="6" fill="white" filter="drop-shadow(0px 1px 3px rgba(0,0,0,0.1))"/>
  <rect x="390" y="650" width="70" height="24" rx="4" fill="#6c757d"/>
  <text x="425" y="667" font-family="Arial" font-size="12" fill="white" text-anchor="middle">이전</text>

  <rect x="475" y="650" width="30" height="24" rx="4" fill="#0d6efd"/>
  <text x="490" y="667" font-family="Arial" font-size="12" fill="white" text-anchor="middle" font-weight="bold">1</text>

  <rect x="520" y="650" width="70" height="24" rx="4" fill="#e9ecef"/>
  <text x="555" y="667" font-family="Arial" font-size="12" fill="#6c757d" text-anchor="middle">다음</text>
</svg>
