<svg width="1200" height="800" xmlns="http://www.w3.org/2000/svg">
  <!-- 배경 -->
  <rect width="1200" height="800" fill="#f8f9fa"/>

  <!-- 왼쪽 사이드바 -->
  <rect width="200" height="800" fill="#2d3748"/>
  <text x="20" y="35" font-family="Arial" font-size="16" fill="white" font-weight="bold">✨ 마녀봇 관리</text>
  <line x1="20" y1="50" x2="180" y2="50" stroke="#4a5568" stroke-width="1"/>

  <rect x="10" y="70" width="180" height="40" rx="6" fill="transparent"/>
  <text x="30" y="95" font-family="Arial" font-size="13" fill="#a0aec0">📊 대시보드</text>

  <rect x="10" y="120" width="180" height="40" rx="6" fill="transparent"/>
  <text x="30" y="145" font-family="Arial" font-size="13" fill="#a0aec0">👥 사용자</text>

  <!-- 활동량 (활성) -->
  <rect x="10" y="170" width="180" height="40" rx="6" fill="#4299e1"/>
  <text x="30" y="195" font-family="Arial" font-size="13" fill="white" font-weight="600">⚠️ 활동량</text>

  <rect x="10" y="220" width="180" height="40" rx="6" fill="transparent"/>
  <text x="30" y="245" font-family="Arial" font-size="13" fill="#a0aec0">🏖️ 휴식</text>

  <rect x="10" y="270" width="180" height="40" rx="6" fill="transparent"/>
  <text x="30" y="295" font-family="Arial" font-size="13" fill="#a0aec0">🎉 이벤트</text>

  <rect x="10" y="320" width="180" height="40" rx="6" fill="transparent"/>
  <text x="30" y="345" font-family="Arial" font-size="13" fill="#a0aec0">🛒 상점</text>

  <rect x="10" y="370" width="180" height="40" rx="6" fill="transparent"/>
  <text x="30" y="395" font-family="Arial" font-size="13" fill="#a0aec0">📋 로그</text>

  <rect x="10" y="420" width="180" height="40" rx="6" fill="transparent"/>
  <text x="30" y="445" font-family="Arial" font-size="13" fill="#a0aec0">⚙️ 설정</text>

  <!-- 메인 콘텐츠 영역 -->
  <!-- 제목 -->
  <text x="240" y="50" font-family="Arial" font-size="24" fill="#333" font-weight="bold">활동량 모니터링</text>
  <text x="240" y="75" font-family="Arial" font-size="13" fill="#6c757d">실시간 사용자 활동량 현황 및 경고 관리</text>

  <!-- 통계 카드들 -->
  <rect x="240" y="100" width="220" height="100" rx="8" fill="white" filter="drop-shadow(0px 2px 4px rgba(0,0,0,0.1))"/>
  <text x="260" y="130" font-family="Arial" font-size="13" fill="#6c757d">위험군 (0~9개)</text>
  <text x="260" y="165" font-family="Arial" font-size="32" fill="#dc3545" font-weight="bold">3명</text>
  <text x="390" y="175" font-family="Arial" font-size="36" fill="#dc3545">🚨</text>

  <rect x="480" y="100" width="220" height="100" rx="8" fill="white" filter="drop-shadow(0px 2px 4px rgba(0,0,0,0.1))"/>
  <text x="500" y="130" font-family="Arial" font-size="13" fill="#6c757d">주의군 (10~19개)</text>
  <text x="500" y="165" font-family="Arial" font-size="32" fill="#ffc107" font-weight="bold">5명</text>
  <text x="650" y="175" font-family="Arial" font-size="36" fill="#ffc107">⚠️</text>

  <rect x="720" y="100" width="220" height="100" rx="8" fill="white" filter="drop-shadow(0px 2px 4px rgba(0,0,0,0.1))"/>
  <text x="740" y="130" font-family="Arial" font-size="13" fill="#6c757d">정상군 (20개+)</text>
  <text x="740" y="165" font-family="Arial" font-size="32" fill="#198754" font-weight="bold">20명</text>
  <text x="890" y="175" font-family="Arial" font-size="36" fill="#198754">✓</text>

  <rect x="960" y="100" width="220" height="100" rx="8" fill="white" filter="drop-shadow(0px 2px 4px rgba(0,0,0,0.1))"/>
  <text x="980" y="130" font-family="Arial" font-size="13" fill="#6c757d">다음 체크</text>
  <text x="980" y="160" font-family="Arial" font-size="18" fill="#333" font-weight="bold">16:00</text>
  <text x="980" y="185" font-family="Arial" font-size="12" fill="#6c757d">2시간 30분 후</text>

  <!-- 활동량 현황 (위험군) -->
  <rect x="240" y="220" width="940" height="200" rx="8" fill="white" filter="drop-shadow(0px 2px 4px rgba(0,0,0,0.1))"/>
  <rect x="240" y="220" width="940" height="50" rx="8" fill="#fee2e2"/>
  <text x="260" y="250" font-family="Arial" font-size="16" fill="#dc3545" font-weight="bold">🚨 위험군 사용자 (48시간 답글 부족)</text>

  <!-- 위험군 사용자 1 -->
  <rect x="260" y="290" width="280" height="50" rx="6" fill="#fff5f5" stroke="#fca5a5" stroke-width="2"/>
  <text x="280" y="310" font-family="Arial" font-size="13" fill="#0d6efd" font-weight="600">@user456</text>
  <text x="280" y="330" font-family="Arial" font-size="11" fill="#6c757d">김서연</text>
  <rect x="400" y="300" width="50" height="24" rx="4" fill="#dc3545"/>
  <text x="425" y="317" font-family="Arial" font-size="13" fill="white" text-anchor="middle" font-weight="bold">5개</text>
  <text x="470" y="317" font-family="Arial" font-size="11" fill="#dc3545">위험</text>

  <!-- 위험군 사용자 2 -->
  <rect x="560" y="290" width="280" height="50" rx="6" fill="#fff5f5" stroke="#fca5a5" stroke-width="2"/>
  <text x="580" y="310" font-family="Arial" font-size="13" fill="#0d6efd" font-weight="600">@user234</text>
  <text x="580" y="330" font-family="Arial" font-size="11" fill="#6c757d">이도윤</text>
  <rect x="700" y="300" width="50" height="24" rx="4" fill="#dc3545"/>
  <text x="725" y="317" font-family="Arial" font-size="13" fill="white" text-anchor="middle" font-weight="bold">8개</text>
  <text x="770" y="317" font-family="Arial" font-size="11" fill="#dc3545">위험</text>

  <!-- 위험군 사용자 3 -->
  <rect x="860" y="290" width="280" height="50" rx="6" fill="#fff5f5" stroke="#fca5a5" stroke-width="2"/>
  <text x="880" y="310" font-family="Arial" font-size="13" fill="#0d6efd" font-weight="600">@user789</text>
  <text x="880" y="330" font-family="Arial" font-size="11" fill="#6c757d">최수아</text>
  <rect x="1000" y="300" width="50" height="24" rx="4" fill="#dc3545"/>
  <text x="1025" y="317" font-family="Arial" font-size="13" fill="white" text-anchor="middle" font-weight="bold">3개</text>
  <text x="1070" y="317" font-family="Arial" font-size="11" fill="#dc3545">위험</text>

  <!-- 활동량 추이 그래프 -->
  <rect x="260" y="360" width="900" height="40" rx="4" fill="#f8f9fa"/>
  <text x="280" y="385" font-family="Arial" font-size="11" fill="#6c757d">활동량 추이</text>

  <!-- 간단한 바 차트 -->
  <rect x="400" y="370" width="40" height="20" rx="2" fill="#dc3545"/>
  <text x="420" y="384" font-family="Arial" font-size="9" fill="white" text-anchor="middle">5</text>

  <rect x="460" y="365" width="40" height="25" rx="2" fill="#dc3545"/>
  <text x="480" y="382" font-family="Arial" font-size="9" fill="white" text-anchor="middle">8</text>

  <rect x="520" y="375" width="40" height="15" rx="2" fill="#dc3545"/>
  <text x="540" y="387" font-family="Arial" font-size="9" fill="white" text-anchor="middle">3</text>

  <!-- 활동량 현황 (주의군) -->
  <rect x="240" y="440" width="460" height="180" rx="8" fill="white" filter="drop-shadow(0px 2px 4px rgba(0,0,0,0.1))"/>
  <rect x="240" y="440" width="460" height="50" rx="8" fill="#fef3c7"/>
  <text x="260" y="470" font-family="Arial" font-size="16" fill="#f59e0b" font-weight="bold">⚠️ 주의군 (5명)</text>

  <text x="270" y="510" font-family="Arial" font-size="13" fill="#0d6efd">@user567</text>
  <text x="270" y="525" font-family="Arial" font-size="11" fill="#6c757d">박지호 | 답글: 12개</text>

  <text x="470" y="510" font-family="Arial" font-size="13" fill="#0d6efd">@user890</text>
  <text x="470" y="525" font-family="Arial" font-size="11" fill="#6c757d">정민서 | 답글: 15개</text>

  <text x="270" y="555" font-family="Arial" font-size="13" fill="#0d6efd">@user345</text>
  <text x="270" y="570" font-family="Arial" font-size="11" fill="#6c757d">한지우 | 답글: 18개</text>

  <text x="470" y="555" font-family="Arial" font-size="13" fill="#0d6efd">@user678</text>
  <text x="470" y="570" font-family="Arial" font-size="11" fill="#6c757d">윤서준 | 답글: 11개</text>

  <text x="270" y="600" font-family="Arial" font-size="13" fill="#0d6efd">@user901</text>
  <text x="270" y="615" font-family="Arial" font-size="11" fill="#6c757d">강하윤 | 답글: 16개</text>

  <!-- 최근 발송 경고 -->
  <rect x="720" y="440" width="460" height="180" rx="8" fill="white" filter="drop-shadow(0px 2px 4px rgba(0,0,0,0.1))"/>
  <rect x="720" y="440" width="460" height="50" rx="8" fill="#f8f9fa"/>
  <text x="740" y="470" font-family="Arial" font-size="16" fill="#333" font-weight="bold">📋 최근 발송 경고</text>

  <text x="740" y="510" font-family="Arial" font-size="12" fill="#6c757d">2025-11-20 16:00</text>
  <text x="880" y="510" font-family="Arial" font-size="12" fill="#0d6efd">@user456</text>
  <rect x="980" y="500" width="60" height="20" rx="4" fill="#dc3545"/>
  <text x="1010" y="514" font-family="Arial" font-size="10" fill="white" text-anchor="middle">자동발송</text>

  <text x="740" y="545" font-family="Arial" font-size="12" fill="#6c757d">2025-11-20 16:00</text>
  <text x="880" y="545" font-family="Arial" font-size="12" fill="#0d6efd">@user234</text>
  <rect x="980" y="535" width="60" height="20" rx="4" fill="#dc3545"/>
  <text x="1010" y="549" font-family="Arial" font-size="10" fill="white" text-anchor="middle">자동발송</text>

  <text x="740" y="580" font-family="Arial" font-size="12" fill="#6c757d">2025-11-19 04:00</text>
  <text x="880" y="580" font-family="Arial" font-size="12" fill="#0d6efd">@user789</text>
  <rect x="980" y="570" width="60" height="20" rx="4" fill="#dc3545"/>
  <text x="1010" y="584" font-family="Arial" font-size="10" fill="white" text-anchor="middle">자동발송</text>

  <text x="740" y="610" font-family="Arial" font-size="11" fill="#adb5bd">총 8건의 경고가 발송되었습니다</text>

  <!-- 액션 버튼 -->
  <rect x="240" y="640" width="200" height="45" rx="8" fill="#0d6efd"/>
  <text x="340" y="668" font-family="Arial" font-size="14" fill="white" text-anchor="middle" font-weight="600">📊 전체 경고 내역</text>

  <rect x="460" y="640" width="200" height="45" rx="8" fill="white" stroke="#0d6efd" stroke-width="2"/>
  <text x="560" y="668" font-family="Arial" font-size="14" fill="#0d6efd" text-anchor="middle" font-weight="600">🔄 수동 체크</text>

  <rect x="680" y="640" width="200" height="45" rx="8" fill="white" stroke="#6c757d" stroke-width="2"/>
  <text x="780" y="668" font-family="Arial" font-size="14" fill="#6c757d" text-anchor="middle" font-weight="600">⚙️ 체크 설정</text>
</svg>
